<?xml version="1.0" standalone="no"?>
<!DOCTYPE svg PUBLIC "-//W3C//DTD SVG 1.1//EN" "http://www.w3.org/Graphics/SVG/1.1/DTD/svg11.dtd" >
<svg xmlns="http://www.w3.org/2000/svg">
<metadata>Generated by IcoMoon</metadata>
<defs>
<font id="icomoon" horiz-adv-x="1024">
<font-face units-per-em="1024" ascent="960" descent="-64" />
<missing-glyph horiz-adv-x="1024" />
<glyph unicode="&#x20;" horiz-adv-x="512" d="" />
<glyph unicode="&#xe900;" glyph-name="calendar" d="M128 799.989v128c0 17.679 14.332 32.011 32.011 32.011s32.011-14.332 32.011-32.011v0-128c0-17.679-14.332-32.011-32.011-32.011s-32.011 14.332-32.011 32.011v0zM672.011 767.978c0.013 0 0.028 0 0.043 0 17.655 0 31.968 14.312 31.968 31.968 0 0.015 0 0.030 0 0.045v-0.002 128c0 17.679-14.332 32.011-32.011 32.011s-32.011-14.332-32.011-32.011v0-128c0-17.679 14.332-32.011 32.011-32.011v0zM1024 192.086c0-0.026 0-0.056 0-0.086 0-141.385-114.615-256-256-256s-256 114.615-256 256c0 141.339 114.541 255.926 255.863 256h0.007c0.038 0 0.084 0 0.129 0 141.355 0 255.951-114.566 256-255.909v-0.005zM960.022 192.086c-0.049 106.014-86.001 191.935-192.022 191.935-106.051 0-192.022-85.971-192.022-192.022 0-106.005 85.897-191.948 191.885-192.022h0.007c106.087 0.049 192.077 86.024 192.151 192.101v0.007zM256 576.043h-128v-128h128zM128 255.978h128v128h-128zM320.022 448h128v128.043h-128zM320.022 255.978h128v128h-128zM64.022 198.342v441.637h703.849v-128h64.022v249.572c0.002 0.18 0.003 0.394 0.003 0.607 0 38.348-30.905 69.478-69.167 69.842h-26.739v-32.011c0-35.346-28.654-64-64-64s-64 28.654-64 64v0 32.011h-383.957v-32.011c0-35.346-28.654-64-64-64s-64 28.654-64 64v0 32.011h-26.704c-38.371-0.268-69.374-31.435-69.374-69.844 0-0.213 0.001-0.426 0.003-0.638v0.032-563.209c-0.001-0.129-0.001-0.281-0.001-0.434 0-38.41 30.967-69.588 69.297-69.929h378.682v64.108h-378.607c-3.008 0.376-5.312 2.917-5.312 5.996 0 0.091 0.002 0.182 0.006 0.273v-0.013zM640.043 447.957v128.086h-128.043v-128zM864.032 192.086h-96.162v95.903c-0.65 17.166-14.723 30.836-31.989 30.836s-31.339-13.67-31.987-30.777l-0.002-0.059v-128c0-0.013 0-0.028 0-0.043 0-17.655 14.312-31.968 31.968-31.968 0.015 0 0.030 0 0.045 0h127.998c17.679 0 32.011 14.332 32.011 32.011s-14.332 32.011-32.011 32.011v0z" />
<glyph unicode="&#xe901;" glyph-name="comments" horiz-adv-x="1303" d="M769.041 265.145c74.751 29.996 137.489 76.343 186.045 134.877l0.615 0.763c42.513 50.085 68.366 115.473 68.366 186.9s-25.853 136.814-68.711 187.317l0.345-0.417c-49.175 59.292-111.912 105.638-183.559 134.535l-3.102 1.105c-74.064 31.527-160.218 49.854-250.653 49.854-2.204 0-4.405-0.011-6.604-0.033l0.335 0.003c-1.905 0.020-4.156 0.031-6.409 0.031-90.436 0-176.591-18.327-254.954-51.47l4.298 1.614c-74.749-30.002-137.485-76.348-186.046-134.878l-0.614-0.762c-42.246-50.242-68.033-115.549-68.394-186.87v-0.078c0.246-60.961 19.544-117.366 52.243-163.625l-0.601 0.896c37.133-53.060 84.578-96.317 139.709-127.601l2.105-1.099q-7.275-17.47-14.885-32.019c-5.675-10.668-11.706-19.833-18.48-28.382l0.293 0.383q-10.53-13.449-16.369-21.059t-19.145-21.442q-13.114-13.832-16.704-18.187c0 0.479-0.957-0.622-2.92-3.255s-3.015-3.877-3.255-3.637-1.197-0.957-2.92-3.637l-2.537-4.020-1.819-3.637c-0.655-1.26-1.155-2.723-1.423-4.265l-0.013-0.091c-0.244-1.405-0.383-3.024-0.383-4.675 0-0.039 0-0.078 0-0.117v0.006c-0.001-0.068-0.002-0.148-0.002-0.229 0-1.629 0.263-3.196 0.75-4.662l-0.030 0.104c0.824-6.168 3.891-11.498 8.339-15.238l0.037-0.030c3.949-3.545 9.18-5.732 14.921-5.791h2.214c24.785 3.267 46.069 7.323 66.931 12.453l-4.184-0.87c77.007 19.908 144.487 51.931 204.041 94.359l-1.874-1.268c38.419-7.285 82.667-11.512 127.881-11.63h0.101c1.958-0.021 4.271-0.033 6.587-0.033 90.354 0 176.432 18.31 254.726 51.422l-4.295-1.613zM362.217 325.833l-32.019-22.543q-20.341-13.832-45.086-28.382l25.462 61.071-70.548 40.73c-43.415 24.397-79.595 56.635-107.749 95.116l-0.658 0.943c-23.58 31.752-37.952 71.577-38.527 114.732l-0.001 0.136c1.039 53.958 22.6 102.687 57.174 138.878l-0.075-0.079c41.453 45.010 92.995 80.078 151.085 101.689l2.695 0.878c60.365 23.945 130.304 37.828 203.485 37.828 1.573 0 3.145-0.006 4.715-0.019l-0.241 0.002c1.33 0.011 2.901 0.018 4.474 0.018 73.182 0 143.121-13.884 207.327-39.161l-3.842 1.333c60.799-22.491 112.356-57.56 153.58-102.296l0.247-0.271c35.216-35.661 56.967-84.69 56.967-138.799s-21.751-103.138-56.987-138.819l0.020 0.020c-41.468-44.999-93.027-80.053-151.133-101.643l-2.695-0.877c-60.356-23.945-130.286-37.829-203.459-37.829-1.582 0-3.163 0.006-4.742 0.019l0.242-0.002c-39.388 0.106-77.841 3.811-115.135 10.803l3.904-0.608zM1251.486 238.294c32.292 45.456 51.623 102.084 51.623 163.228 0 62.907-20.462 121.034-55.094 168.090l0.551-0.785c-38.97 53.694-88.616 97.22-146.071 128.097l-2.3 1.13c10.603-33.074 16.715-71.121 16.715-110.595 0-67.901-18.084-131.579-49.698-186.479l0.964 1.815c-35.817-61.738-82.605-113.168-138.168-153.173l-1.444-0.989c-54.946-39.76-118.751-71.77-187.413-92.618l-4.56-1.19c-66.402-20.775-142.752-32.743-221.897-32.743-0.989 0-1.978 0.002-2.966 0.006h0.153q-21.825 0-63.991 2.92c93.090-60.317 206.899-96.175 329.082-96.175 4.986 0 9.959 0.060 14.917 0.178l-0.735-0.014c45.315 0.12 89.563 4.347 132.492 12.327l-4.51-0.697c74.308-54.082 164.196-91.348 261.749-104.396l2.974-0.325c0.559-0.051 1.209-0.080 1.866-0.080 5.394 0 10.333 1.948 14.152 5.179l-0.032-0.027c4.871 3.947 8.316 9.486 9.545 15.816l0.027 0.17c0 2.92 0 4.499 0.718 4.786s0.574 1.819-0.383 4.786l-1.436 4.355-1.819 3.637c-0.842 1.531-1.682 2.829-2.602 4.064l0.065-0.092c-0.941 1.357-1.9 2.544-2.937 3.656l0.018-0.019c-0.718 0.718-1.819 1.962-3.255 3.637s-2.441 2.776-2.92 3.255q-3.637 4.355-16.704 18.187t-19.145 21.442q-5.839 7.658-16.369 21.107c-6.483 8.166-12.515 17.331-17.705 27.014l-0.482 0.985q-7.61 14.358-14.885 31.972c57.232 32.382 104.698 75.583 141.005 127.2l0.904 1.356z" />
<glyph unicode="&#xe902;" glyph-name="envelope" horiz-adv-x="1463" d="M115.632 899.49l526.933-417.339c21.99-16.413 49.705-26.279 79.724-26.279 3.2 0 6.373 0.112 9.517 0.333l-0.423-0.024c2.738-0.2 5.931-0.314 9.151-0.314 29.979 0 57.654 9.869 79.952 26.534l-0.351-0.251 526.933 417.339c42.201 33.242 32.463 60.51-20.906 60.51h-1189.429c-53.628 0-63.172-27.334-21.101-60.51zM1385.114 789.377l-575.821-437.011c-21.869-14.86-48.854-23.726-77.91-23.726s-56.042 8.865-78.399 24.039l0.489-0.313-575.562 437.011c-42.916 32.398-77.91 15.063-77.91-38.566v-717.228c0.257-53.682 43.706-97.131 97.363-97.388h1267.949c53.682 0.257 97.131 43.706 97.388 97.363v717.253c0.13 53.628-34.865 70.963-77.586 38.566z" />
<glyph unicode="&#xe903;" glyph-name="facebook" horiz-adv-x="512" d="M320 608v128c0 35.346 28.654 64 64 64v0h64v160h-128c-106.039 0-192-85.961-192-192v-160.364h-128v-160.364h128v-512h192v512.729h128l64 160.364z" />
<glyph unicode="&#xe904;" glyph-name="home" horiz-adv-x="1214" d="M1213.665 353.168l-227.98 227.582v341.333h-151.032v-189.665l-227.821 227.582-606.832-606.832v-37.917h151.668v-379.25h379.33v227.582h151.668v-227.582h379.25v379.25h151.668z" />
<glyph unicode="&#xe905;" glyph-name="instagram" d="M704 960h-384c-176.714-0.041-319.958-143.285-320-319.996v-384.004c0.041-176.714 143.285-319.958 319.996-320h384.004c176.714 0.041 319.958 143.285 320 319.996v384.004c-0.041 176.714-143.285 319.958-319.996 320h-0.004zM928 256c-0.166-123.645-100.355-223.834-223.984-224h-384.016c-123.645 0.166-223.834 100.355-224 223.984v384.016c0.166 123.645 100.355 223.834 223.984 224h384.016c123.676-0.124 223.907-100.329 224.073-223.984v-0.016zM512 704c-141.385 0-256-114.615-256-256s114.615-256 256-256c141.385 0 256 114.615 256 256v0c0 141.385-114.615 256-256 256v0zM512 288c-88.567 0-160.364 71.798-160.364 160.364s71.798 160.364 160.364 160.364c88.567 0 160.364-71.798 160.364-160.364v0c0-88.567-71.798-160.364-160.364-160.364v0zM821.358 723.171c0-18.841-15.273-34.114-34.114-34.114s-34.114 15.273-34.114 34.114c0 18.841 15.273 34.114 34.114 34.114s34.114-15.273 34.114-34.114z" />
<glyph unicode="&#xe906;" glyph-name="instagram2" d="M826.067 960h-628.181c-109.068-0.235-197.422-88.588-197.657-197.634v-628.48c0.235-109.068 88.588-197.422 197.634-197.657h628.25c109.068 0.235 197.422 88.588 197.657 197.634v628.25c-0.157 109.162-88.555 197.626-197.678 197.887h-0.025zM888.398 845.451h22.432v-170.077l-171.18-0.552-0.552 170.077zM512.023 619.295c94.616 0 171.318-76.702 171.318-171.318s-76.702-171.318-171.318-171.318c-94.6 0-171.292 76.675-171.318 171.269v0.003c0.261 94.52 76.801 171.077 171.29 171.364h0.027zM911.933 146.252c-0.078-54.176-44.002-98.067-98.182-98.093h-605.292c-54.183 0.026-98.106 43.917-98.185 98.085v415.73h142.175c-13.048-33.878-20.616-73.073-20.639-114.033v-0.010c0-154.63 125.353-279.983 279.983-279.983s279.983 125.353 279.983 279.983v0c-0.036 40.968-7.585 80.162-21.345 116.293l0.752-2.25h140.474v-415.723z" />
<glyph unicode="&#xe907;" glyph-name="pin" horiz-adv-x="640" d="M320.011 960c-176.737 0-320.011-143.274-320.011-320.011v0c0-305.542 320.011-703.989 320.011-703.989s320.011 398.447 320.011 703.989c0 176.737-143.274 320.011-320.011 320.011v0zM320.011 463.343c-95.428 0-172.787 77.359-172.787 172.787s77.359 172.787 172.787 172.787c95.428 0 172.787-77.359 172.787-172.787v0c0-95.428-77.359-172.787-172.787-172.787v0z" />
<glyph unicode="&#xe908;" glyph-name="qoutation" horiz-adv-x="1185" d="M0.254 218.163c-0.001-0.222-0.001-0.486-0.001-0.749 0-156.248 126.664-282.912 282.912-282.912s282.912 126.664 282.912 282.912c0 156.248-126.664 282.912-282.912 282.912-32.999 0-64.678-5.65-94.124-16.035l1.981 0.609c63.504 364.177 347.478 599.027 84.303 405.73-291.979-214.32-275.325-663.833-275.056-672.078 0-0.135-0.015-0.239-0.015-0.389zM620.993 218.163c-0.001-0.222-0.001-0.486-0.001-0.749 0-156.248 126.664-282.912 282.912-282.912s282.912 126.664 282.912 282.912c0 156.248-126.664 282.912-282.912 282.912-32.999 0-64.678-5.65-94.124-16.035l1.981 0.609c63.489 364.177 347.478 599.027 84.229 405.73-291.904-214.335-275.325-663.848-274.981-672.078 0-0.135-0.015-0.239-0.015-0.389z" />
<glyph unicode="&#xe909;" glyph-name="search" horiz-adv-x="989" d="M973.583 27.31l-243.717 253.471c60.131 71.3 96.674 164.202 96.674 265.639 0 228.257-185.039 413.297-413.297 413.297s-413.297-185.039-413.297-413.297c0-228.257 185.039-413.297 413.297-413.297 0.064 0 0.127 0 0.191 0h-0.010c0.359-0.001 0.783-0.002 1.208-0.002 88.311 0 170.085 27.988 236.936 75.578l-1.256-0.849 245.565-255.397c9.826-10.206 23.605-16.545 38.865-16.545 29.78 0 53.921 24.141 53.921 53.921 0 14.52-5.739 27.699-15.072 37.393l0.016-0.017zM413.425 852.184c168.712 0 305.48-136.768 305.48-305.48s-136.768-305.48-305.48-305.48c-168.712 0-305.48 136.768-305.48 305.48v0c0.248 168.612 136.868 305.232 305.456 305.48h0.024z" />
<glyph unicode="&#xe90a;" glyph-name="share" horiz-adv-x="1015" d="M828.584 309.199c-59.042-0.19-111.561-27.954-145.378-71.082l-0.305-0.403-316.885 162.060c4.284 14.404 6.872 30.986 7.132 48.132l0.002 0.144c-0.311 18.792-3.393 36.754-8.853 53.646l0.363-1.301 315.479 161.306c34.3-44.73 87.761-73.283 147.892-73.283 102.654 0 185.871 83.217 185.871 185.871s-83.217 185.871-185.871 185.871c-102.654 0-185.871-83.217-185.871-185.871 0-0.269 0.001-0.537 0.002-0.806v0.041c0.255-17.343 2.861-33.977 7.514-49.733l-0.331 1.306-316.835-161.959c-34.441 43.577-87.295 71.289-146.621 71.289-102.959 0-186.424-83.465-186.424-186.424s83.465-186.424 186.424-186.424c60.924 0 115.022 29.225 149.040 74.42l0.344 0.477 315.328-161.306c-5.12-15.634-8.22-33.646-8.538-52.336l-0.002-0.16c0-0.015 0-0.033 0-0.050 0-103.042 83.532-186.575 186.575-186.575s186.575 83.532 186.575 186.575c0 103.042-83.532 186.575-186.575 186.575-0.018 0-0.035 0-0.053 0h0.003z" />
<glyph unicode="&#xe90b;" glyph-name="thumbs-up" horiz-adv-x="945" d="M915.005 387.668c18.889 27.818 30.158 62.14 30.158 99.094 0 0.43-0.002 0.859-0.005 1.288v-0.066c-1.55 86.245-71.236 155.708-157.422 156.896l-0.113 0.001h-108.308c17.882 34.359 28.673 74.917 29.415 117.925l0.003 0.238c0.16 3.374 0.25 7.329 0.25 11.305 0 37.346-8.017 72.819-22.424 104.792l0.649-1.612c-13.551 27.37-35.238 48.993-61.867 62.111l-0.793 0.353c-26.226 12.643-57.026 20.031-89.552 20.031-1.182 0-2.361-0.010-3.538-0.029l0.177 0.002c-0.052 0-0.114 0-0.175 0-21.499 0-40.968-8.692-55.085-22.753l0.002 0.002c-17.815-17.903-31.081-40.349-37.905-65.448l-0.24-1.037q-11.718-40.597-18.779-77.86c-2.443-20.145-10.29-38.104-22.030-52.82l0.162 0.21q-30.154-32.605-65.848-78.792c-25.087-35.884-52.832-67.147-83.776-94.917l-0.507-0.447h-168.714c-43.516 0-78.792-35.276-78.792-78.792v0-393.861c0-43.516 35.276-78.792 78.792-78.792v0h177c32.33-6.093 60.802-14.577 87.968-25.609l-3.047 1.094q75.703-26.476 133.216-40.303c35.008-8.816 75.197-13.876 116.568-13.876 0.009 0 0.018 0 0.027 0h79.379c2.808-0.144 6.096-0.226 9.403-0.226 50.216 0 96.024 18.873 130.718 49.912l-0.188-0.165c32.477 31.682 52.62 75.878 52.62 124.778 0 3.624-0.111 7.222-0.329 10.79l0.024-0.49c23.028 29.139 36.94 66.408 36.94 106.926 0 0.917-0.007 1.832-0.021 2.746l0.002-0.138c0 0.057 0 0.125 0 0.193 0 9.272-0.677 18.386-1.985 27.295l0.122-1.011c14.707 25.209 23.389 55.493 23.389 87.805 0 0.279-0.001 0.557-0.002 0.835v-0.043c0.001 0.184 0.001 0.402 0.001 0.62 0 14.882-2.023 29.292-5.808 42.97l0.267-1.129zM145.816 105.204c-6.949-6.755-16.447-10.92-26.918-10.92-21.338 0-38.636 17.298-38.636 38.636s17.298 38.636 38.636 38.636c21.338 0 38.636-17.298 38.636-38.636 0-0.005 0-0.010 0-0.015v0.001c0.001-0.095 0.001-0.207 0.001-0.319 0-10.764-4.493-20.478-11.705-27.37l-0.014-0.014zM853.178 437.483q-13.238-28.291-32.948-28.928c6.784-8.291 12.064-18.108 15.245-28.828l0.15-0.59c3.667-10.195 5.893-21.96 6.127-34.214l0.002-0.107c0.001-0.159 0.001-0.347 0.001-0.535 0-28.852-12.561-54.769-32.512-72.584l-0.095-0.083c6.97-12.073 11.082-26.555 11.082-41.997 0-0.163 0-0.326-0.001-0.489v0.025c-0.138-16.493-4.107-32.028-11.058-45.8l0.272 0.594c-6.189-13.83-16.374-24.947-29.076-32.133l-0.342-0.178c1.871-10.264 2.991-22.127 3.088-34.233l0.001-0.088q0-102.964-118.163-102.964h-74.232c-76.692 4.042-148.471 20.169-215.092 46.517l4.604-1.605q-3.089 1.226-17.847 6.472l-21.868 7.698q-7.060 2.501-21.524 7.060t-23.388 6.766q-8.924 2.157-20.299 4.020c-5.833 1.080-12.604 1.753-19.512 1.862l-0.1 0.001h-19.612v394.204h19.612c8.016 0.275 15.499 2.291 22.169 5.679l-0.301-0.139c9.375 4.618 17.443 10.163 24.596 16.694l-0.081-0.073q12.601 11.081 23.682 21.868c8.456 8.411 16.471 17.233 24.025 26.448l0.49 0.617q13.532 16.327 21.23 26.133t19.612 25.251q11.669 15.396 14.17 18.484 33.831 41.823 47.363 55.993c17.060 18.423 29.781 41.112 36.383 66.28l0.242 1.088q11.375 40.94 18.779 77.223c2.818 20.202 11.189 38.065 23.504 52.454l-0.116-0.139c3.634 0.523 7.83 0.821 12.096 0.821 26.431 0 50.186-11.453 66.575-29.667l0.072-0.081c12.603-22.406 20.027-49.183 20.027-77.695 0-4.061-0.151-8.087-0.447-12.072l0.032 0.532c-3.132-36.626-13.657-70.186-30.074-100.050l0.656 1.303c-15.681-28.358-26.195-61.671-29.349-97.101l-0.069-0.96h216.616c21.558-0.080 40.983-9.147 54.735-23.648l0.032-0.034c14.797-13.75 24.025-33.319 24.025-55.043 0-0.007 0-0.013 0-0.020v0.001c-0.802-18.385-5.587-35.479-13.507-50.681l0.317 0.67z" />
<glyph unicode="&#xe90c;" glyph-name="twitter" horiz-adv-x="1260" d="M1260.287 838.806c-43.298-19.437-93.53-33.78-146.138-40.535l-2.685-0.281c53.56 32.169 93.793 81.857 113.144 140.996l0.514 1.817c-47.145-28.545-102.018-50.327-160.483-62.23l-3.321-0.565c-47.262 50.368-114.248 81.745-188.563 81.745-142.685 0-258.355-115.669-258.355-258.355 0-0.008 0-0.015 0-0.023v0.001c-0.008-0.785-0.013-1.714-0.013-2.643 0-19.943 2.194-39.374 6.354-58.064l-0.331 1.77c-215.433 10.895-404.92 113.443-531.623 269.128l-1.055 1.337c-22.218-37.366-35.351-82.385-35.351-130.471 0-89.159 45.148-167.773 113.829-214.227l0.912-0.582c-42.979 1.213-82.983 12.87-117.899 32.508l1.281-0.662v-2.871c0.135-124.606 88.065-228.636 205.255-253.567l1.698-0.303c-19.731-5.417-42.386-8.53-65.768-8.53-0.689 0-1.378 0.003-2.067 0.008l0.106-0.001c-1.221-0.023-2.661-0.037-4.103-0.037-15.849 0-31.322 1.614-46.262 4.686l1.475-0.253c34.375-103.285 128.858-176.992 240.967-179.944l0.343-0.007c-87.223-68.737-198.696-110.25-319.864-110.25-0.168 0-0.336 0-0.504 0h0.026c-0.867-0.006-1.891-0.009-2.917-0.009-20.757 0-41.209 1.307-61.278 3.843l2.387-0.246c111.295-72.675 247.558-115.905 393.917-115.905 0.846 0 1.692 0.001 2.538 0.004h-0.131c1.578-0.012 3.444-0.019 5.312-0.019 403.334 0 730.301 326.967 730.301 730.301 0 1.867-0.007 3.733-0.021 5.597l0.002-0.285c0 11.393 0 22.427-0.987 33.371 51.079 36.802 94.030 81.151 128.189 131.91l1.168 1.842z" />
<glyph unicode="&#xe90d;" glyph-name="whatsapp" d="M512.073 960v0c-0.127 0-0.278 0-0.429 0-282.609 0-511.708-229.1-511.708-511.708 0-112.877 36.548-217.218 98.456-301.834l-1.006 1.442-63.781-190.251 196.811 62.907c79.286-52.896 176.763-84.41 281.6-84.41 282.73 0 511.927 229.198 511.927 511.927 0 282.709-229.164 511.893-511.865 511.927h-0.004zM809.986 236.975c-20.929-37.341-56.971-64.090-99.623-72.097l-0.896-0.14c-26.752-5.686-61.667-10.205-179.317 38.56-105.24 52.199-191.475 128.829-253.64 222.779l-1.485 2.388c-33.456 42.547-55.497 95.512-60.71 153.33l-0.082 1.13c-0.043 1.406-0.068 3.060-0.068 4.72 0 47.344 20.132 89.985 52.301 119.832l0.104 0.095c13.023 11.453 30.216 18.442 49.040 18.442 1.16 0 2.313-0.027 3.459-0.079l-0.163 0.006c6.342 0 12.027 0 17.13-0.583 15.016-0.656 22.597-1.531 32.51-25.294 12.319-29.74 42.424-103.216 45.995-110.797 2.843-4.546 4.529-10.068 4.529-15.984 0-4.228-0.861-8.255-2.418-11.915l0.075 0.199c-4.433-9.038-9.966-16.783-16.558-23.483l0.012 0.012c-7.289-8.674-14.579-15.38-22.305-24.711-6.925-8.164-14.579-16.838-6.050-31.854 23.476-39.521 51.031-73.48 82.808-102.95l0.29-0.266c33.886-31.161 73.862-56.334 117.855-73.472l2.564-0.879c4.126-2.047 8.985-3.245 14.124-3.245 8.661 0 16.527 3.402 22.335 8.942l-0.013-0.012c13.256 15.626 26.406 32.899 38.639 50.848l1.38 2.145c5.094 8.322 14.135 13.791 24.453 13.791 4.352 0 8.476-0.973 12.168-2.713l-0.174 0.074c13.85-4.811 86.961-40.966 102.050-48.474s24.929-11.153 28.574-17.494c1.023-6.067 1.608-13.057 1.608-20.184 0-18.32-3.864-35.738-10.822-51.483l0.321 0.815z" />
<glyph unicode="&#xe90e;" glyph-name="close" d="M775.992 255.587l-192.474 192.474 192.427 192.427c12.769 19.218 10.706 45.031-6.005 61.742-0.657 0.657-1.328 1.292-2.013 1.903l0.094-0.086c-0.526 0.59-1.16 1.261-1.817 1.919-16.712 16.712-42.525 18.775-61.484 6.189l-0.259-0.184-192.427-192.427-192.45 192.45c-19.215 12.749-45.012 10.68-61.715-6.023-0.667-0.667-1.311-1.349-1.931-2.044l0.087 0.095c-0.584-0.521-1.248-1.149-1.899-1.799-16.703-16.703-18.773-42.497-6.21-61.453l0.184-0.259 192.45-192.45-192.498-192.498c-12.747-19.215-10.677-45.010 6.025-61.712 0.65-0.65 1.315-1.279 1.992-1.885l-0.093 0.085c0.521-0.584 1.149-1.248 1.799-1.899 16.703-16.703 42.497-18.773 61.453-6.21l0.259 0.184 192.474 192.474 192.498-192.498c19.215-12.747 45.010-10.677 61.712 6.025 0.65 0.65 1.279 1.315 1.885 1.992l-0.085-0.093c0.609 0.541 1.301 1.194 1.978 1.871 16.696 16.696 18.771 42.475 6.226 61.429l-0.184 0.26z" />
<glyph unicode="&#xe90f;" glyph-name="arrow" horiz-adv-x="1991" d="M1478.758-64v322.942h-966.599v-322.942l-512.159 512 512.159 512v-323.021h966.599v323.021l512.080-512z" />
<glyph unicode="&#xe910;" glyph-name="arrow-left" horiz-adv-x="584" d="M21.213 498.607l440.449 440.449c12.492 10.747 28.869 17.291 46.774 17.291 39.715 0 71.91-32.195 71.91-71.91 0-17.905-6.544-34.282-17.371-46.869l0.080 0.095-389.573-389.303 389.573-389.933c10.929-12.545 17.592-29.056 17.592-47.123 0-39.715-32.195-71.91-71.91-71.91-18.045 0-34.537 6.646-47.163 17.625l0.088-0.075-440.449 440.449c-12.923 12.998-20.911 30.914-20.911 50.697s7.988 37.699 20.914 50.7l-0.003-0.003z" />
<glyph unicode="&#xe911;" glyph-name="tel" horiz-adv-x="996" d="M995.946 151.843c0.339-2.193 0.533-4.722 0.533-7.297 0-14.163-5.865-26.955-15.299-36.081l-0.014-0.013-140.27-143.17c-6.856-7.584-15.075-13.788-24.292-18.255l-0.471-0.206c-8.706-4.547-18.813-7.956-29.485-9.683l-0.577-0.077q-1.060 0-6.358-0.558t-13.72-0.558c-23.655 0.943-45.975 3.461-67.773 7.472l2.909-0.444c-41.491 7.955-78.313 19.982-112.918 35.987l2.989-1.24c-56.497 25.524-104.788 53.231-150.070 84.942l2.94-1.951c-65.516 46.054-122.84 95.996-174.555 151.252l-0.573 0.619c-43.548 43.4-83.694 90.146-120.046 139.843l-2.321 3.328c-26.591 36.314-52.491 77.655-75.395 120.829l-2.688 5.553c-15.727 29.437-30.642 64.239-42.655 100.366l-1.406 4.879c-7.677 22.485-14.629 49.868-19.529 77.955l-0.494 3.418c-2.825 14.83-4.441 31.888-4.441 49.324 0 1.542 0.013 3.081 0.038 4.617l-0.003-0.231q1.060 19.521 1.060 21.696c1.777 11.626 5.15 22.098 9.93 31.75l-0.281-0.628c4.505 9.929 10.551 18.385 17.931 25.461l0.028 0.027 140.27 144.063c8.354 9.252 20.359 15.071 33.725 15.17h0.018c0.156 0.002 0.341 0.004 0.526 0.004 8.986 0 17.256-3.067 23.82-8.21l-0.084 0.064c7.13-5.565 13.105-12.215 17.775-19.759l0.184-0.32 112.885-220.193c4.183-7.499 6.646-16.452 6.646-25.98 0-4.255-0.491-8.395-1.42-12.367l0.072 0.366c-2.64-13.608-9.003-25.429-17.977-34.71l0.018 0.019-51.702-53.264c-1.666-1.961-2.936-4.315-3.651-6.899l-0.030-0.128c-0.884-2.409-1.447-5.192-1.56-8.091l-0.002-0.052c4.257-19.668 10.799-37.073 19.485-53.149l-0.522 1.056c12.603-24.403 25.563-45.174 39.979-64.808l-0.938 1.338c23.56-31.893 48.129-60.052 74.773-86.098l0.131-0.128c25.834-27.894 53.403-53.306 82.857-76.425l1.528-1.156c17.947-14.028 38.109-27.483 59.254-39.399l2.432-1.26c10.917-6.382 23.535-11.752 36.847-15.458l1.135-0.27 13.163-2.733c2.525 0.227 4.852 0.8 7.025 1.676l-0.165-0.059c2.662 0.776 4.961 2.082 6.876 3.807l-0.016-0.014 60.124 62.912c11.404 10.909 26.898 17.624 43.961 17.624 0.035 0 0.071 0 0.106 0h-0.006c0.799 0.042 1.735 0.067 2.677 0.067 9.469 0 18.367-2.443 26.099-6.732l-0.276 0.14h1.060l203.573-123.65c13.41-7.608 23.139-20.386 26.536-35.555l0.068-0.363z" />
<glyph unicode="&#xe912;" glyph-name="arrow-right" horiz-adv-x="584" d="M562.787 397.393l-440.449-440.449c-12.492-10.747-28.869-17.291-46.774-17.291-39.715 0-71.91 32.195-71.91 71.91 0 17.905 6.544 34.282 17.371 46.869l-0.080-0.095 389.573 389.303-389.573 389.933c-10.929 12.545-17.592 29.056-17.592 47.123 0 39.715 32.195 71.91 71.91 71.91 18.045 0 34.537-6.646 47.163-17.625l-0.088 0.075 440.449-440.449c12.923-12.998 20.911-30.914 20.911-50.697s-7.988-37.699-20.914-50.7l0.003 0.003z" />
<glyph unicode="&#xe913;" glyph-name="notes" d="M959.939 768.042h-63.986v-575.948c0-70.594-57.228-127.821-127.821-127.821h-576.174v-63.986c0-35.338 28.647-63.986 63.986-63.986v0h703.995c35.338 0 63.986 28.647 63.986 63.986v0 703.77c0 35.338-28.647 63.986-63.986 63.986v0zM831.967 192.019v703.995c0 35.338-28.647 63.986-63.986 63.986h-512.338c-17.619-0.032-33.562-7.18-45.114-18.722l-191.807-191.807c-11.542-11.551-18.69-27.495-18.722-45.107v-511.968c0-35.338 28.647-63.986 63.986-63.986v0h703.995c0 0 0.001 0 0.001 0 35.206 0 63.771 28.434 63.985 63.59v0.020zM255.643 768.042c0-35.338-28.647-63.986-63.986-63.986v0h-127.671l191.657 191.958z" />
<glyph unicode="&#xe914;" glyph-name="calendar-alt" d="M904.044 879.999h-47.872v80.001h-80.186v-80.001h-527.973v80.001h-80.001v-80.001h-48.332c0 0 0 0 0 0-66.097 0-119.68-53.583-119.68-119.68 0-0.097 0-0.194 0-0.291v0.015-704.086c0-66.097 53.583-119.68 119.68-119.68v0h784.364c66.097 0 119.68 53.583 119.68 119.68v0 704.086c0 0.082 0 0.179 0 0.276 0 66.097-53.583 119.68-119.68 119.68 0 0 0 0 0 0v0zM943.999 55.956c-0.052-22.045-17.909-39.902-39.95-39.955h-784.369c-21.927 0.208-39.627 18.006-39.678 39.95v528.070h863.997zM943.999 663.562h-863.997v96.48c0.051 21.949 17.752 39.747 39.659 39.955h47.984v-80.001h80.001v80.001h528.341v-80.001h80.186v80.001h47.872c22.045-0.052 39.902-17.909 39.955-39.95v-0.005zM182.558 502.915h54.869v-109.829h-54.869v109.829zM292.387 502.915h109.829v-109.829h-109.829v109.829zM457.085 502.915h109.829v-109.829h-109.829v109.829zM621.875 502.915h109.829v-109.829h-109.829v109.829zM786.573 502.915h54.869v-109.829h-54.869v109.829zM182.558 338.125h54.869v-54.869h-54.869v54.869zM292.387 338.125h109.829v-54.869h-109.829v54.869zM457.085 338.125h109.829v-54.869h-109.829v54.869zM621.875 338.125h109.829v-54.869h-109.829v54.869zM182.558 173.427h54.869v-54.869h-54.869v54.869zM292.387 173.427h109.829v-54.869h-109.829v54.869zM457.085 173.427h109.829v-54.869h-109.829v54.869zM621.875 173.427h109.829v-54.869h-109.829v54.869zM786.573 338.125h54.869v-54.869h-54.869v54.869z" />
</font>
</defs>
</svg>
