<svg width="181" height="50" viewBox="0 0 181 50" fill="none" xmlns="http://www.w3.org/2000/svg">
<path d="M0 15C0 6.71573 6.71573 0 15 0H166C174.284 0 181 6.71573 181 15V35C181 43.2843 174.284 50 166 50H15C6.71573 50 0 43.2843 0 35V15Z" fill="#EA5B21"/>
<path d="M40.9962 23.51C40.8316 23.2067 40.5932 22.977 40.2812 22.821C39.9779 22.6563 39.6182 22.574 39.2022 22.574C38.4829 22.574 37.9066 22.8123 37.4732 23.289C37.0399 23.757 36.8232 24.3853 36.8232 25.174C36.8232 26.0147 37.0486 26.6733 37.4992 27.15C37.9586 27.618 38.5869 27.852 39.3842 27.852C39.9302 27.852 40.3896 27.7133 40.7622 27.436C41.1436 27.1587 41.4209 26.76 41.5942 26.24H38.7732V24.602H43.6092V26.669C43.4446 27.2237 43.1629 27.7393 42.7642 28.216C42.3742 28.6927 41.8759 29.0783 41.2692 29.373C40.6626 29.6677 39.9779 29.815 39.2152 29.815C38.3139 29.815 37.5079 29.62 36.7972 29.23C36.0952 28.8313 35.5449 28.281 35.1462 27.579C34.7562 26.877 34.5612 26.0753 34.5612 25.174C34.5612 24.2727 34.7562 23.471 35.1462 22.769C35.5449 22.0583 36.0952 21.508 36.7972 21.118C37.4992 20.7193 38.3009 20.52 39.2022 20.52C40.2942 20.52 41.2129 20.7843 41.9582 21.313C42.7122 21.8417 43.2106 22.574 43.4532 23.51H40.9962ZM47.1936 22.405V24.251H50.1706V25.967H47.1936V27.969H50.5606V29.75H44.9706V20.624H50.5606V22.405H47.1936ZM58.6988 20.624V22.405H56.2808V29.75H54.0578V22.405H51.6398V20.624H58.6988ZM69.7843 23.562C69.7843 24.0907 69.663 24.576 69.4203 25.018C69.1777 25.4513 68.805 25.8023 68.3023 26.071C67.7997 26.3397 67.1757 26.474 66.4303 26.474H65.0523V29.75H62.8293V20.624H66.4303C67.1583 20.624 67.7737 20.7497 68.2763 21.001C68.779 21.2523 69.156 21.599 69.4073 22.041C69.6587 22.483 69.7843 22.99 69.7843 23.562ZM66.2613 24.706C66.686 24.706 67.0023 24.6063 67.2103 24.407C67.4183 24.2077 67.5223 23.926 67.5223 23.562C67.5223 23.198 67.4183 22.9163 67.2103 22.717C67.0023 22.5177 66.686 22.418 66.2613 22.418H65.0523V24.706H66.2613ZM75.7256 29.75L73.8276 26.305H73.2946V29.75H71.0716V20.624H74.8026C75.522 20.624 76.133 20.7497 76.6356 21.001C77.147 21.2523 77.5283 21.599 77.7796 22.041C78.031 22.4743 78.1566 22.9597 78.1566 23.497C78.1566 24.1037 77.9833 24.6453 77.6366 25.122C77.2986 25.5987 76.796 25.9367 76.1286 26.136L78.2346 29.75H75.7256ZM73.2946 24.732H74.6726C75.08 24.732 75.3833 24.6323 75.5826 24.433C75.7906 24.2337 75.8946 23.952 75.8946 23.588C75.8946 23.2413 75.7906 22.9683 75.5826 22.769C75.3833 22.5697 75.08 22.47 74.6726 22.47H73.2946V24.732ZM83.9981 29.841C83.1401 29.841 82.3514 29.6417 81.6321 29.243C80.9214 28.8443 80.3538 28.2897 79.9291 27.579C79.5131 26.8597 79.3051 26.0537 79.3051 25.161C79.3051 24.2683 79.5131 23.4667 79.9291 22.756C80.3538 22.0453 80.9214 21.4907 81.6321 21.092C82.3514 20.6933 83.1401 20.494 83.9981 20.494C84.8561 20.494 85.6404 20.6933 86.3511 21.092C87.0704 21.4907 87.6338 22.0453 88.0411 22.756C88.4571 23.4667 88.6651 24.2683 88.6651 25.161C88.6651 26.0537 88.4571 26.8597 88.0411 27.579C87.6251 28.2897 87.0618 28.8443 86.3511 29.243C85.6404 29.6417 84.8561 29.841 83.9981 29.841ZM83.9981 27.813C84.7261 27.813 85.3068 27.5703 85.7401 27.085C86.1821 26.5997 86.4031 25.9583 86.4031 25.161C86.4031 24.355 86.1821 23.7137 85.7401 23.237C85.3068 22.7517 84.7261 22.509 83.9981 22.509C83.2614 22.509 82.6721 22.7473 82.2301 23.224C81.7968 23.7007 81.5801 24.3463 81.5801 25.161C81.5801 25.967 81.7968 26.6127 82.2301 27.098C82.6721 27.5747 83.2614 27.813 83.9981 27.813ZM100.367 20.624V29.75H98.1438V24.277L96.1028 29.75H94.3088L92.2548 24.264V29.75H90.0318V20.624H92.6578L95.2188 26.942L97.7538 20.624H100.367ZM106.411 29.841C105.553 29.841 104.765 29.6417 104.045 29.243C103.335 28.8443 102.767 28.2897 102.342 27.579C101.926 26.8597 101.718 26.0537 101.718 25.161C101.718 24.2683 101.926 23.4667 102.342 22.756C102.767 22.0453 103.335 21.4907 104.045 21.092C104.765 20.6933 105.553 20.494 106.411 20.494C107.269 20.494 108.054 20.6933 108.764 21.092C109.484 21.4907 110.047 22.0453 110.454 22.756C110.87 23.4667 111.078 24.2683 111.078 25.161C111.078 26.0537 110.87 26.8597 110.454 27.579C110.038 28.2897 109.475 28.8443 108.764 29.243C108.054 29.6417 107.269 29.841 106.411 29.841ZM106.411 27.813C107.139 27.813 107.72 27.5703 108.153 27.085C108.595 26.5997 108.816 25.9583 108.816 25.161C108.816 24.355 108.595 23.7137 108.153 23.237C107.72 22.7517 107.139 22.509 106.411 22.509C105.675 22.509 105.085 22.7473 104.643 23.224C104.21 23.7007 103.993 24.3463 103.993 25.161C103.993 25.967 104.21 26.6127 104.643 27.098C105.085 27.5747 105.675 27.813 106.411 27.813ZM119.01 20.624V22.405H116.592V29.75H114.369V22.405H111.951V20.624H119.01ZM122.479 20.624V29.75H120.256V20.624H122.479ZM128.536 29.841C127.678 29.841 126.889 29.6417 126.17 29.243C125.459 28.8443 124.891 28.2897 124.467 27.579C124.051 26.8597 123.843 26.0537 123.843 25.161C123.843 24.2683 124.051 23.4667 124.467 22.756C124.891 22.0453 125.459 21.4907 126.17 21.092C126.889 20.6933 127.678 20.494 128.536 20.494C129.394 20.494 130.178 20.6933 130.889 21.092C131.608 21.4907 132.171 22.0453 132.579 22.756C132.995 23.4667 133.203 24.2683 133.203 25.161C133.203 26.0537 132.995 26.8597 132.579 27.579C132.163 28.2897 131.599 28.8443 130.889 29.243C130.178 29.6417 129.394 29.841 128.536 29.841ZM128.536 27.813C129.264 27.813 129.844 27.5703 130.278 27.085C130.72 26.5997 130.941 25.9583 130.941 25.161C130.941 24.355 130.72 23.7137 130.278 23.237C129.844 22.7517 129.264 22.509 128.536 22.509C127.799 22.509 127.21 22.7473 126.768 23.224C126.334 23.7007 126.118 24.3463 126.118 25.161C126.118 25.967 126.334 26.6127 126.768 27.098C127.21 27.5747 127.799 27.813 128.536 27.813ZM142.734 29.75H140.511L136.793 24.121V29.75H134.57V20.624H136.793L140.511 26.279V20.624H142.734V29.75ZM147.4 20.299L147.14 26.526H145.255L144.995 20.299H147.4ZM146.23 29.854C145.84 29.854 145.519 29.7413 145.268 29.516C145.025 29.282 144.904 28.996 144.904 28.658C144.904 28.3113 145.025 28.021 145.268 27.787C145.519 27.553 145.84 27.436 146.23 27.436C146.611 27.436 146.923 27.553 147.166 27.787C147.417 28.021 147.543 28.3113 147.543 28.658C147.543 28.996 147.417 29.282 147.166 29.516C146.923 29.7413 146.611 29.854 146.23 29.854Z" fill="white"/>
</svg>
