<svg width="209" height="50" viewBox="0 0 209 50" fill="none" xmlns="http://www.w3.org/2000/svg">
<path d="M0 15C0 6.71573 6.71573 0 15 0H194C202.284 0 209 6.71573 209 15V35C209 43.2843 202.284 50 194 50H15C6.71572 50 0 43.2843 0 35V15Z" fill="#EA5B21"/>
<path d="M55.1427 23.51C54.978 23.2067 54.7397 22.977 54.4277 22.821C54.1243 22.6563 53.7647 22.574 53.3487 22.574C52.6293 22.574 52.053 22.8123 51.6197 23.289C51.1863 23.757 50.9697 24.3853 50.9697 25.174C50.9697 26.0147 51.195 26.6733 51.6457 27.15C52.105 27.618 52.7333 27.852 53.5307 27.852C54.0767 27.852 54.536 27.7133 54.9087 27.436C55.29 27.1587 55.5673 26.76 55.7407 26.24H52.9197V24.602H57.7557V26.669C57.591 27.2237 57.3093 27.7393 56.9107 28.216C56.5207 28.6927 56.0223 29.0783 55.4157 29.373C54.809 29.6677 54.1243 29.815 53.3617 29.815C52.4603 29.815 51.6543 29.62 50.9437 29.23C50.2417 28.8313 49.6913 28.281 49.2927 27.579C48.9027 26.877 48.7077 26.0753 48.7077 25.174C48.7077 24.2727 48.9027 23.471 49.2927 22.769C49.6913 22.0583 50.2417 21.508 50.9437 21.118C51.6457 20.7193 52.4473 20.52 53.3487 20.52C54.4407 20.52 55.3593 20.7843 56.1047 21.313C56.8587 21.8417 57.357 22.574 57.5997 23.51H55.1427ZM61.34 22.405V24.251H64.317V25.967H61.34V27.969H64.707V29.75H59.117V20.624H64.707V22.405H61.34ZM72.8452 20.624V22.405H70.4272V29.75H68.2042V22.405H65.7862V20.624H72.8452ZM83.9308 23.562C83.9308 24.0907 83.8094 24.576 83.5668 25.018C83.3241 25.4513 82.9514 25.8023 82.4488 26.071C81.9461 26.3397 81.3221 26.474 80.5768 26.474H79.1988V29.75H76.9758V20.624H80.5768C81.3048 20.624 81.9201 20.7497 82.4228 21.001C82.9254 21.2523 83.3024 21.599 83.5538 22.041C83.8051 22.483 83.9308 22.99 83.9308 23.562ZM80.4078 24.706C80.8324 24.706 81.1488 24.6063 81.3568 24.407C81.5648 24.2077 81.6688 23.926 81.6688 23.562C81.6688 23.198 81.5648 22.9163 81.3568 22.717C81.1488 22.5177 80.8324 22.418 80.4078 22.418H79.1988V24.706H80.4078ZM89.8721 29.75L87.9741 26.305H87.4411V29.75H85.2181V20.624H88.9491C89.6684 20.624 90.2794 20.7497 90.7821 21.001C91.2934 21.2523 91.6747 21.599 91.9261 22.041C92.1774 22.4743 92.3031 22.9597 92.3031 23.497C92.3031 24.1037 92.1297 24.6453 91.7831 25.122C91.4451 25.5987 90.9424 25.9367 90.2751 26.136L92.3811 29.75H89.8721ZM87.4411 24.732H88.8191C89.2264 24.732 89.5297 24.6323 89.7291 24.433C89.9371 24.2337 90.0411 23.952 90.0411 23.588C90.0411 23.2413 89.9371 22.9683 89.7291 22.769C89.5297 22.5697 89.2264 22.47 88.8191 22.47H87.4411V24.732ZM98.1445 29.841C97.2865 29.841 96.4979 29.6417 95.7785 29.243C95.0679 28.8443 94.5002 28.2897 94.0755 27.579C93.6595 26.8597 93.4515 26.0537 93.4515 25.161C93.4515 24.2683 93.6595 23.4667 94.0755 22.756C94.5002 22.0453 95.0679 21.4907 95.7785 21.092C96.4979 20.6933 97.2865 20.494 98.1445 20.494C99.0025 20.494 99.7869 20.6933 100.498 21.092C101.217 21.4907 101.78 22.0453 102.188 22.756C102.604 23.4667 102.812 24.2683 102.812 25.161C102.812 26.0537 102.604 26.8597 102.188 27.579C101.772 28.2897 101.208 28.8443 100.498 29.243C99.7869 29.6417 99.0025 29.841 98.1445 29.841ZM98.1445 27.813C98.8725 27.813 99.4532 27.5703 99.8865 27.085C100.329 26.5997 100.55 25.9583 100.55 25.161C100.55 24.355 100.329 23.7137 99.8865 23.237C99.4532 22.7517 98.8725 22.509 98.1445 22.509C97.4079 22.509 96.8185 22.7473 96.3765 23.224C95.9432 23.7007 95.7265 24.3463 95.7265 25.161C95.7265 25.967 95.9432 26.6127 96.3765 27.098C96.8185 27.5747 97.4079 27.813 98.1445 27.813ZM114.513 20.624V29.75H112.29V24.277L110.249 29.75H108.455L106.401 24.264V29.75H104.178V20.624H106.804L109.365 26.942L111.9 20.624H114.513ZM120.558 29.841C119.7 29.841 118.911 29.6417 118.192 29.243C117.481 28.8443 116.914 28.2897 116.489 27.579C116.073 26.8597 115.865 26.0537 115.865 25.161C115.865 24.2683 116.073 23.4667 116.489 22.756C116.914 22.0453 117.481 21.4907 118.192 21.092C118.911 20.6933 119.7 20.494 120.558 20.494C121.416 20.494 122.2 20.6933 122.911 21.092C123.63 21.4907 124.194 22.0453 124.601 22.756C125.017 23.4667 125.225 24.2683 125.225 25.161C125.225 26.0537 125.017 26.8597 124.601 27.579C124.185 28.2897 123.622 28.8443 122.911 29.243C122.2 29.6417 121.416 29.841 120.558 29.841ZM120.558 27.813C121.286 27.813 121.867 27.5703 122.3 27.085C122.742 26.5997 122.963 25.9583 122.963 25.161C122.963 24.355 122.742 23.7137 122.3 23.237C121.867 22.7517 121.286 22.509 120.558 22.509C119.821 22.509 119.232 22.7473 118.79 23.224C118.357 23.7007 118.14 24.3463 118.14 25.161C118.14 25.967 118.357 26.6127 118.79 27.098C119.232 27.5747 119.821 27.813 120.558 27.813ZM133.157 20.624V22.405H130.739V29.75H128.516V22.405H126.098V20.624H133.157ZM136.625 20.624V29.75H134.402V20.624H136.625ZM142.682 29.841C141.824 29.841 141.036 29.6417 140.316 29.243C139.606 28.8443 139.038 28.2897 138.613 27.579C138.197 26.8597 137.989 26.0537 137.989 25.161C137.989 24.2683 138.197 23.4667 138.613 22.756C139.038 22.0453 139.606 21.4907 140.316 21.092C141.036 20.6933 141.824 20.494 142.682 20.494C143.54 20.494 144.325 20.6933 145.035 21.092C145.755 21.4907 146.318 22.0453 146.725 22.756C147.141 23.4667 147.349 24.2683 147.349 25.161C147.349 26.0537 147.141 26.8597 146.725 27.579C146.309 28.2897 145.746 28.8443 145.035 29.243C144.325 29.6417 143.54 29.841 142.682 29.841ZM142.682 27.813C143.41 27.813 143.991 27.5703 144.424 27.085C144.866 26.5997 145.087 25.9583 145.087 25.161C145.087 24.355 144.866 23.7137 144.424 23.237C143.991 22.7517 143.41 22.509 142.682 22.509C141.946 22.509 141.356 22.7473 140.914 23.224C140.481 23.7007 140.264 24.3463 140.264 25.161C140.264 25.967 140.481 26.6127 140.914 27.098C141.356 27.5747 141.946 27.813 142.682 27.813ZM156.88 29.75H154.657L150.939 24.121V29.75H148.716V20.624H150.939L154.657 26.279V20.624H156.88V29.75ZM161.546 20.299L161.286 26.526H159.401L159.141 20.299H161.546ZM160.376 29.854C159.986 29.854 159.666 29.7413 159.414 29.516C159.172 29.282 159.05 28.996 159.05 28.658C159.05 28.3113 159.172 28.021 159.414 27.787C159.666 27.553 159.986 27.436 160.376 27.436C160.758 27.436 161.07 27.553 161.312 27.787C161.564 28.021 161.689 28.3113 161.689 28.658C161.689 28.996 161.564 29.282 161.312 29.516C161.07 29.7413 160.758 29.854 160.376 29.854Z" fill="white"/>
</svg>
