<svg xmlns="http://www.w3.org/2000/svg" width="119.101" height="126.335" viewBox="0 0 119.101 126.335"><g data-name="Group 881" fill="#0c7eb0"><path data-name="Path 435" d="M67.096 110.593a7.145 7.145 0 01-3.927 2.756l-7.888 2.154a7.077 7.077 0 01-8.948-6.2l-.693-8.145a6.977 6.977 0 011.235-4.69l.291-.418H19.032a4.14 4.14 0 010-8.281h34.056l7.611-10.87H19.032a4.142 4.142 0 010-8.283l47.527-.122 17.822-25.55V24.022a5.523 5.523 0 00-5.507-5.62H65.23v10.8a9.172 9.172 0 01-9.256 9.129h-27.44a9.054 9.054 0 01-9.123-9.129v-10.8H5.62A5.616 5.616 0 000 24.022v96.555a5.736 5.736 0 005.62 5.759h73.248a5.642 5.642 0 005.51-5.759V86.052zM19.032 49.464h46.433a4.14 4.14 0 010 8.281H19.032a4.14 4.14 0 010-8.281z"/><path data-name="Path 436" d="M28.611 32.9h27.414a3.766 3.766 0 003.763-3.766v-15.77A3.766 3.766 0 0056.025 9.6h-4.13a9.65 9.65 0 00-19.3 0h-3.984a3.762 3.762 0 00-3.763 3.766v15.762a3.764 3.764 0 003.763 3.772zM42.249 5.346a4.3 4.3 0 014.3 4.254H37.94a4.307 4.307 0 014.309-4.254z"/><path data-name="Path 437" d="M119.061 25.382a2.681 2.681 0 00-1.108-1.722l-6.864-4.783a2.659 2.659 0 00-3.706.659L58.759 89.261l11.236 7.834 48.625-69.723a2.686 2.686 0 00.441-1.99z"/><path data-name="Path 438" d="M51.101 100.645l.7 8.187a1.571 1.571 0 00.667 1.165 1.62 1.62 0 00.908.294 1.491 1.491 0 00.416-.059l7.93-2.171a1.61 1.61 0 00.885-.622l2.977-4.269-11.238-7.837-2.977 4.269a1.549 1.549 0 00-.268 1.043z"/></g></svg>