<svg xmlns="http://www.w3.org/2000/svg" width="119.357" height="125.228" viewBox="0 0 119.357 125.228"><g data-name="Group 878"><g data-name="Group 876"><path data-name="Path 428" d="M119.352 18.942C119.352 8.325 102.869 0 81.835 0c-20.965 0-37.4 8.27-37.5 18.839a64.183 64.183 0 0119.847 3.5l2.019-.677c-2.054-.82-3.549-1.81-3.976-2.683l-.195-.4 4.568-.726.107.182c.563.925 2.113 1.878 4.145 2.562a15.61 15.61 0 004.932.785 12.7 12.7 0 003.943-.577c1.276-.43 1.6-.824 1.644-1.087.059-.381-.342-.925-1.214-1.624-1.758-1.354-2.468-2.374-2.315-3.307.147-.879 1.039-1.569 2.8-2.159a21.63 21.63 0 016.762-.965 29.326 29.326 0 016.727.778l4.327-1.462 3.731 1.254-4.241 1.427a8.59 8.59 0 013.389 2.168l.362.443-4.669.7-.121-.14c-.348-.43-1.068-1.322-3.772-2.233a13.507 13.507 0 00-4.3-.719 11.27 11.27 0 00-3.535.537c-.824.28-1.274.563-1.326.844-.088.491.866 1.348 1.6 1.96 1.482 1.188 2.106 2.159 1.951 3.047-.167.953-1.192 1.71-3.226 2.387-3.669 1.241-9.51 1.348-14.218.208l-2.529.848c7.452 3.441 12.088 8.4 12.088 14.012v.078c.739.024 1.462.081 2.214.081 14.9 0 28.139-4.265 34.133-10.933v4.991c0 5.828 0 19.5-33.879 19.5-.85 0-1.664-.018-2.468-.035a38.136 38.136 0 01-.053 1.848h.053v1.5c.833.015 1.609.066 2.468.066 17.252 0 28.641-3.581 33.879-10.65v3.614c0 5.837 0 19.5-33.879 19.5-.85 0-1.664-.018-2.468-.035-.006.55-.013 1.157-.053 1.857h.053v1.5c.833.018 1.609.066 2.468.066 17.252 0 28.641-3.581 33.879-10.65v3.614c0 5.837 0 19.5-33.879 19.5-.85 0-1.664-.018-2.475-.035a28.593 28.593 0 01-.16 3.1h.167v.259c.833.018 1.609.066 2.468.066 17.252 0 28.641-3.581 33.879-10.65v4.864c0 6.03 0 20.141-33.879 20.141-.85 0-1.664-.018-2.475-.033a26.718 26.718 0 01-.261 3.38c.892.02 1.8.042 2.735.042 37.261 0 37.261-17.1 37.261-23.529V67.408h-.169a32.3 32.3 0 00.169-3.777V50.316h-.053c.053-.993.053-1.878.053-2.536V34.471h-.053c.053-.993.053-1.872.053-2.529v-13z" fill="#0c7eb0"/></g><g data-name="Group 877"><path data-name="Path 429" d="M37.512 20.967c-21.035 0-37.516 8.325-37.516 18.942v13c0 .765.006 1.591.074 2.529h-.074v13.313c0 .767.006 1.6.074 2.536h-.074V84.6a28.306 28.306 0 00.195 3.777h-.195v13.322c0 5.815 0 23.529 37.77 23.529 37.259 0 37.259-17.1 37.259-23.529V88.377h-.169a32.257 32.257 0 00.169-3.777V71.287h-.055c.053-.993.053-1.878.053-2.536V55.438h-.053c.053-.993.053-1.872.053-2.529v-13c.006-10.617-16.474-18.942-37.511-18.942zM17.894 39.944l-.193-.4 4.568-.726.107.182c.563.925 2.113 1.878 4.145 2.562a15.539 15.539 0 004.932.785 12.7 12.7 0 003.943-.577c1.276-.43 1.6-.824 1.644-1.087.061-.381-.342-.925-1.214-1.622-1.758-1.354-2.468-2.374-2.315-3.307.147-.879 1.039-1.569 2.8-2.159a21.627 21.627 0 016.762-.967 29.459 29.459 0 016.727.778l4.327-1.462 3.731 1.254-4.239 1.429a8.586 8.586 0 013.393 2.169l.362.443-4.669.7-.121-.14c-.348-.43-1.068-1.322-3.77-2.233a13.5 13.5 0 00-4.3-.717 11.27 11.27 0 00-3.535.537c-.824.28-1.276.563-1.328.846-.088.489.866 1.348 1.6 1.96 1.482 1.188 2.1 2.159 1.951 3.045-.167.953-1.192 1.71-3.226 2.387-3.669 1.241-9.51 1.348-14.221.208l-4.5 1.508-3.724-1.254 4.353-1.462c-2.063-.815-3.558-1.81-3.99-2.68zm53.753 61.755c0 6.03 0 20.141-33.877 20.141-34.383 0-34.383-14.637-34.383-20.141v-5.17c5.339 7.27 16.9 10.959 34.383 10.959 17.252 0 28.639-3.581 33.877-10.65zm0-17.1c0 5.835 0 19.5-33.877 19.5-34.383 0-34.383-14.168-34.383-19.5v-3.917c5.339 7.27 16.9 10.952 34.383 10.952 17.252 0 28.639-3.581 33.877-10.65zm0-15.849c0 5.837 0 19.5-33.877 19.5-34.383 0-34.383-14.166-34.383-19.5v-3.917c5.339 7.27 16.9 10.953 34.383 10.953 17.252 0 28.639-3.581 33.877-10.65zm0-15.843c0 5.83 0 19.5-33.877 19.5-34.383 0-34.383-14.166-34.383-19.5v-4.991c5.99 6.668 19.231 10.933 34.127 10.933s28.136-4.265 34.131-10.933v4.993z" fill="#0c7eb0"/></g></g></svg>