<svg xmlns="http://www.w3.org/2000/svg" width="216.601" height="120.957" viewBox="0 0 216.601 120.957"><defs><linearGradient id="a" x1=".5" y1="1" x2=".5" gradientUnits="objectBoundingBox"><stop offset="0" stop-color="gray" stop-opacity=".251"/><stop offset=".54" stop-color="gray" stop-opacity=".122"/><stop offset="1" stop-color="gray" stop-opacity=".102"/></linearGradient></defs><g><path data-name="Path 127" d="M175.613 100.469a6.022 6.022 0 00-2.46-.262.791.791 0 00.146 1.575 7.27 7.27 0 001.5-.276z" fill="#377da6"/><path data-name="Path 128" d="M175.734 100.483a6.012 6.012 0 01.6 2.4.792.792 0 01-1.581.074 7.358 7.358 0 01.066-1.52z" fill="#377da6"/><path data-name="Path 129" d="M178.032 97.192s-.494-1.552-3.518-.95a1.239 1.239 0 00.039 2.441h.059a3.074 3.074 0 003.42-1.491z" fill="#377da6"/><path data-name="Path 130" d="M178.347 97.1s1.624.127 1.725 3.2a1.239 1.239 0 01-2.384.52.167.167 0 00-.022-.057 3.083 3.083 0 01.681-3.663z" fill="#377da6"/><path data-name="Path 131" d="M180.515 93.133a3.23 3.23 0 00-2.181-2.435 1.7 1.7 0 00-1.128 3.193 6.386 6.386 0 002.587.375z" fill="#377da6"/><path data-name="Path 132" d="M183.011 88.023a4.246 4.246 0 00-2.97-2.345 1.809 1.809 0 00-.715 3.543 7.492 7.492 0 003.06.025z" fill="#377da6"/><path data-name="Path 133" d="M184.518 82.991a4.851 4.851 0 00-3.127-2.15 1.57 1.57 0 00-.694 3.058 7.3 7.3 0 003.662-.051z" fill="#377da6"/><path data-name="Path 134" d="M185.938 78.085a5.042 5.042 0 00-2.736-2.175 1.582 1.582 0 00-.977 3.008 5.562 5.562 0 003.545-.014z" fill="#377da6"/><path data-name="Path 135" d="M186.539 73.616a6.787 6.787 0 00-2.375-2.8 1.636 1.636 0 00-1.759 2.754 4.951 4.951 0 003.971.9z" fill="#377da6"/><path data-name="Path 136" d="M186.832 68.314a6.646 6.646 0 00-2.515-2.736 1.684 1.684 0 00-1.716 2.888 4.323 4.323 0 004.073.659z" fill="#377da6"/><path data-name="Path 137" d="M186.648 63.474a11.991 11.991 0 00-2.345-2.667 1.306 1.306 0 00-1.706 1.976 5.858 5.858 0 004 1.839z" fill="#377da6"/><path data-name="Path 138" d="M186.153 58.84a17.571 17.571 0 00-2.65-3.424 1.1 1.1 0 00-1.563 1.542 10.17 10.17 0 004.336 2.92z" fill="#377da6"/><path data-name="Path 139" d="M185.209 53.384a15.657 15.657 0 00-2.116-2.621 1.104 1.104 0 00-1.579 1.542 8.078 8.078 0 003.961 2.49z" fill="#377da6"/><path data-name="Path 140" d="M184.381 48.293a24.971 24.971 0 00-2.034-2.417.914.914 0 00-1.353 1.229 5.6 5.6 0 003.4 2.116z" fill="#377da6"/><path data-name="Path 141" d="M183.521 43.572a25.446 25.446 0 00-1.954-3.215.8.8 0 00-1.309.918 7.124 7.124 0 003.178 2.781z" fill="#377da6"/><path data-name="Path 142" d="M182.812 37.297s-.483-.819-1.172-1.771a.84.84 0 00-1.392.938 4.209 4.209 0 002.466 2.058z" fill="#377da6"/><path data-name="Path 143" d="M182.474 33.138l-.612-3.058a.643.643 0 00-1.27.2 6.9 6.9 0 002.007 4.356z" fill="#377da6"/><path data-name="Path 144" d="M182.837 24.445a.6.6 0 00-1.145.328 15.491 15.491 0 00.617 2.5z" fill="#377da6"/><path data-name="Path 145" d="M180.652 93.073a3.23 3.23 0 013.2.688 1.7 1.7 0 01-2.218 2.562 6.42 6.42 0 01-1.611-2.062z" fill="#377da6"/><path data-name="Path 146" d="M183.15 87.837a4.243 4.243 0 013.647.993 1.809 1.809 0 01-2.421 2.685 7.485 7.485 0 01-1.843-2.445z" fill="#377da6"/><path data-name="Path 147" d="M184.653 83.335a4.852 4.852 0 013.713-.825 1.57 1.57 0 01-.5 3.1 7.312 7.312 0 01-3.377-1.417z" fill="#377da6"/><path data-name="Path 148" d="M186.036 78.112a5.038 5.038 0 013.346-1 1.581 1.581 0 01-.221 3.154 5.552 5.552 0 01-3.283-1.339z" fill="#377da6"/><path data-name="Path 149" d="M186.511 73.743a6.806 6.806 0 012.816-2.357 1.636 1.636 0 011.288 3 4.954 4.954 0 01-4.086.225z" fill="#377da6"/><path data-name="Path 150" d="M186.579 68.234a6.622 6.622 0 012.849-2.376 1.684 1.684 0 011.325 3.088 4.321 4.321 0 01-4.123.121z" fill="#377da6"/><path data-name="Path 151" d="M186.212 63.429a11.981 11.981 0 011.72-3.107 1.306 1.306 0 012.089 1.563 5.828 5.828 0 01-3.518 2.652z" fill="#377da6"/><path data-name="Path 152" d="M186.061 58.835a17.5 17.5 0 011.587-4.037 1.1 1.1 0 011.923 1.046 10.131 10.131 0 01-3.35 4.016z" fill="#377da6"/><path data-name="Path 153" d="M184.928 53.134a15.68 15.68 0 011.614-3.082 1.1 1.1 0 011.853 1.188 8.116 8.116 0 01-3.445 3.322z" fill="#377da6"/><path data-name="Path 154" d="M184.025 48.266a25.1 25.1 0 01.846-3.043.914.914 0 011.741.555 5.611 5.611 0 01-2.212 3.338z" fill="#377da6"/><path data-name="Path 155" d="M183.398 43.479a25.363 25.363 0 011.173-3.578.8.8 0 011.485.6 7.121 7.121 0 01-2.458 3.432z" fill="#377da6"/><path data-name="Path 156" d="M182.458 37.726s.184-.932.518-2.06a.839.839 0 011.624.422 4.209 4.209 0 01-1.642 2.761z" fill="#377da6"/><path data-name="Path 157" d="M182.677 32.927l1.063-2.931a.643.643 0 011.225.391 6.855 6.855 0 01-2.634 4.006z" fill="#377da6"/><path data-name="Path 158" d="M184.002 24.753s.166-.133.42-.342a.527.527 0 01.706.782 9.969 9.969 0 01-2.89 1.833z" fill="#377da6"/><path data-name="Path 159" d="M183.932 23.054a38.511 38.511 0 012.12-3.776.391.391 0 00-.633-.447 11.338 11.338 0 00-1.7 3.949z" fill="#377da6"/><path data-name="Path 160" d="M182.72 38.571l.227-.023c-.977-9.109-.565-14.725 1.143-15.814l-.123-.2c-1.81 1.163-2.239 6.705-1.247 16.037z" fill="#444053"/><path data-name="Path 161" d="M186.081 60.106l.338-.051c-.127-.842-.274-1.7-.438-2.541-1.423-7.393-2.529-14.227-3.082-19.417l-.248-.2c.555 5.2 1.563 12.271 3 19.673.156.842.303 1.696.43 2.536z" fill="#444053"/><path data-name="Path 162" d="M170.251 106.144a44.345 44.345 0 009.828-11.663 49.246 49.246 0 005.785-14.42 57.559 57.559 0 00.444-20.682l-.3.244a52.2 52.2 0 01-6.3 34.607 43.8 43.8 0 01-9.724 11.549z" fill="#444053"/><ellipse data-name="Ellipse 80" cx="13.005" cy="2.501" rx="13.005" ry="2.501" transform="translate(24.911 101.106)" fill="#377da6"/><ellipse data-name="Ellipse 81" cx="1.515" cy="1.982" rx="1.515" ry="1.982" transform="translate(36.183 100.563)" fill="#3f3d56"/><ellipse data-name="Ellipse 82" cx="1.515" cy="1.982" rx="1.515" ry="1.982" transform="translate(36.183 98.14)" fill="#3f3d56"/><ellipse data-name="Ellipse 83" cx="1.515" cy="1.982" rx="1.515" ry="1.982" transform="translate(36.183 95.718)" fill="#3f3d56"/><ellipse data-name="Ellipse 84" cx="1.515" cy="1.982" rx="1.515" ry="1.982" transform="translate(36.183 93.295)" fill="#3f3d56"/><ellipse data-name="Ellipse 85" cx="1.515" cy="1.982" rx="1.515" ry="1.982" transform="translate(36.183 90.872)" fill="#3f3d56"/><ellipse data-name="Ellipse 86" cx="1.515" cy="1.982" rx="1.515" ry="1.982" transform="translate(36.183 88.451)" fill="#3f3d56"/><ellipse data-name="Ellipse 87" cx="1.515" cy="1.982" rx="1.515" ry="1.982" transform="translate(36.183 86.027)" fill="#3f3d56"/><path data-name="Path 163" d="M43.365 71.429a7.15 7.15 0 00.565-.831l-3.979-.653 4.3.031a7.258 7.258 0 00.139-5.745l-5.773 2.994 5.323-3.909a7.254 7.254 0 10-11.979 8.116 7.329 7.329 0 00-.827 1.323l5.165 2.683-5.5-1.849a7.256 7.256 0 001.173 6.811 7.254 7.254 0 1011.4 0 7.248 7.248 0 000-8.968z" fill="#377da6"/><path data-name="Path 164" d="M30.411 75.914a7.23 7.23 0 001.549 4.483 7.254 7.254 0 1011.4 0c.977-1.232-12.949-5.298-12.949-4.483z" opacity=".1"/><path data-name="Path 165" d="M44.831 18.26v86.321a3.013 3.013 0 003.014 3.013h123.876a3.013 3.013 0 003.013-3.013V18.26z" fill="#fff"/><rect data-name="Rectangle 178" width="31.053" height="18.227" rx="8.65" transform="translate(55.322 25.987)" opacity=".1"/><rect data-name="Rectangle 179" width="31.053" height="18.227" rx="8.65" transform="translate(94.264 25.987)" opacity=".1"/><rect data-name="Rectangle 180" width="30.179" height="17.713" rx="2" transform="translate(55.757 26.243)" fill="#377da6"/><rect data-name="Rectangle 181" width="30.179" height="17.713" rx="2" transform="rotate(180 81.911 21.979)" fill="#444053" opacity=".1"/><rect data-name="Rectangle 182" width="30.179" height="17.713" rx="2" transform="rotate(180 62.44 21.979)" fill="#377da6"/><rect data-name="Rectangle 183" width="30.179" height="17.713" rx="2" transform="translate(55.757 51.83)" fill="#444053" opacity=".1"/><rect data-name="Rectangle 184" width="30.179" height="17.713" rx="2" transform="rotate(180 81.911 34.772)" fill="#444053" opacity=".1"/><rect data-name="Rectangle 185" width="30.179" height="17.713" rx="2" transform="rotate(180 62.44 34.772)" fill="#444053" opacity=".1"/><rect data-name="Rectangle 186" width="30.179" height="17.713" rx="2" transform="translate(55.757 77.417)" fill="#444053" opacity=".1"/><rect data-name="Rectangle 187" width="30.179" height="17.713" rx="2" transform="rotate(180 81.911 47.566)" fill="#444053" opacity=".1"/><rect data-name="Rectangle 188" width="30.179" height="17.713" rx="2" transform="rotate(180 62.44 47.566)" fill="#444053" opacity=".1"/><path data-name="Path 166" d="M44.831 3.015v15.683h129.9V3.015A3.013 3.013 0 00171.718 0H47.844a3.013 3.013 0 00-3.013 3.015zm32.147 4.639a2.406 2.406 0 112.406-2.406 2.406 2.406 0 01-2.406 2.407zm65.606 0a2.406 2.406 0 111.7-.7 2.406 2.406 0 01-1.7.7z" fill="#377da6"/><path data-name="Path 167" d="M77.142 2.406a2.843 2.843 0 102.841 2.843 2.843 2.843 0 00-2.841-2.843zm0 5.249a2.406 2.406 0 112.4-2.406 2.406 2.406 0 01-2.406 2.406z" opacity=".1"/><path data-name="Path 168" d="M142.439 2.406a2.843 2.843 0 102.843 2.843 2.843 2.843 0 00-2.843-2.843zm0 5.249a2.406 2.406 0 112.406-2.406 2.406 2.406 0 01-2.406 2.406z" opacity=".1"/><circle data-name="Ellipse 88" cx="2.984" cy="2.984" r="2.984" transform="translate(197.937 46.29)" fill="#ec5c2a" opacity=".1"/><circle data-name="Ellipse 89" cx="5.003" cy="5.003" r="5.003" transform="translate(206.595 30.963)" fill="#ec5c2a" opacity=".1"/><circle data-name="Ellipse 90" cx="5.003" cy="5.003" r="5.003" transform="translate(199.972 55.238)" fill="#ec5c2a" opacity=".1"/><circle data-name="Ellipse 91" cx="7.084" cy="7.084" r="7.084" transform="translate(0 27.654)" fill="#ec5c2a" opacity=".1"/><path data-name="Path 169" d="M817.395 476.7a6.249 6.249 0 00-1.45-.815.3.3 0 00-.127-.033 22.3 22.3 0 01-2.99-2.576c.2-.156.375-.309.567-.459-1.173-.559-1.823-1.839-2.456-2.994a29.536 29.536 0 00-6.516-8.118c-.064-.248-.442-.2-.643-.356a.516.516 0 01-.143-.5c.031-.18.113-.346.158-.522a3.523 3.523 0 00-.033-1.27 1.556 1.556 0 01.254-1.214c.09-.1.205-.184.293-.289a1.1 1.1 0 00.2-.878 3.113 3.113 0 00-.2-.889q1.436-3.908 2.871-7.831a18.474 18.474 0 001.415-5.636 6.735 6.735 0 00-1.294-4.381c.172-.041.344-.084.514-.133-1.118-1.481-1.239-3.443-1.268-5.31q-.024-1.4-.1-2.793c.324.143.653.27.989.379l.313.1a10.787 10.787 0 001.55.332c.231.033.465.059.7.074q-.5-1.262-1.007-2.529a3.456 3.456 0 01-.312-1.186v-.078a.674.674 0 01.01-.141 1.533 1.533 0 01.076-.328 1.489 1.489 0 01.06-.154 2.741 2.741 0 01.25-.44c.07-.107.148-.211.227-.317a4.317 4.317 0 00.7-1.135 2.149 2.149 0 00.108-.647 3.194 3.194 0 00-.059-.664 5.643 5.643 0 00-.1-.432c-.025-.088-.053-.176-.08-.262l-.024-.07-.066-.2-.024-.066a8.853 8.853 0 00-.078-.209l-.016-.041c-.373-.96-.87-1.874-1.173-2.861a7.512 7.512 0 01-.2-.8c-.014-.068-.023-.139-.035-.207s-.018-.117-.026-.176-.018-.137-.025-.205l-.018-.2c0-.063-.01-.125-.014-.2 0-.119-.012-.238-.014-.358v-.543c0-.09.014-.18.022-.268a.4.4 0 01.014-.127q.02-.2.053-.391c.02-.115.041-.233.064-.35a4.656 4.656 0 00.109-.977.96.96 0 00-.014-.2c-.014-.068-.016-.105-.025-.156a.377.377 0 010-.047.526.526 0 00-.025-.105.2.2 0 00-.016-.049l-.033-.1-.016-.045a1.066 1.066 0 00-.043-.1l-.014-.035a2.432 2.432 0 00-.063-.125 2.879 2.879 0 00-.262-.406c-.643-.844-1.712-1.487-2.3-2.417a5.382 5.382 0 01-.659-1.954c-.029-.156-.055-.313-.082-.467s-.051-.307-.078-.459c-.018-.094-.035-.2-.055-.281l-.012-.061c-.016-.074-.031-.151-.049-.225l-.012-.053a6.596 6.596 0 00-.055-.234l-.012-.041-.063-.246a.167.167 0 010-.029c-.023-.086-.049-.172-.074-.258v-.018c-.027-.09-.055-.178-.084-.266a7.303 7.303 0 00-.094-.272c-.035-.092-.068-.184-.105-.274a7.23 7.23 0 00-.989-1.759 4.667 4.667 0 00-3.713-1.919 7.354 7.354 0 00-2.234.567l-1.882.694.526-.242a4.5 4.5 0 00-1.6.342 1.554 1.554 0 00-.928 1.272c-.01.322.117.643.076.963-.068.53-.555.889-.807 1.358a1.747 1.747 0 00-.2.918v.125a.168.168 0 000 .031v.063a62.514 62.514 0 01-2.345-1.073 8.291 8.291 0 01-3.4-2.585c-.258-.391-.457-.813-.713-1.2A9.52 9.52 0 00785 401.5l-2.4-2.6c-.184.346.053.754.238 1.1a4.716 4.716 0 01.444 1.145.543.543 0 01-.012.4.78.78 0 01-.328.233 1.172 1.172 0 00-.494 1.343 1.485 1.485 0 001.108.965 2.012 2.012 0 01.494.121c.289.143.426.475.633.723a2.842 2.842 0 001.55.772c.887 1.024 1.81 2 2.7 3.029a19.417 19.417 0 004.467 4.169c.182.109.367.211.555.3a.307.307 0 01-.01.094 1.059 1.059 0 00.084.684 1.074 1.074 0 00.766.373l1.325.236a4.544 4.544 0 01-.064.512c-.018.1-.039.205-.059.309l-.023.133v.02a.388.388 0 01-.014.107c-.014.037 0 .025 0 .037v.26a2.49 2.49 0 00.737 1.346l.186.225a3.126 3.126 0 00-.6 1.266 4.3 4.3 0 00-.086.881 1.532 1.532 0 00-.391.61 2.793 2.793 0 00-.1.987v.391a3.281 3.281 0 00.227 1.368c.017.035.037.066.055.1a18.976 18.976 0 01-1.131 1.563 3.393 3.393 0 00.311 3.885c.268.309.612.606.643 1.016a3.812 3.812 0 01-.055.555 4.147 4.147 0 00.281 1.288 1.331 1.331 0 01-.108 1.067 1.564 1.564 0 00-.268 1.024 6.845 6.845 0 01-.168 1.667c-.018.24 0 .485-.021.725a4.09 4.09 0 01-.143.68.276.276 0 01-.02.074c-.483.213-.962.434-1.423.69a1.248 1.248 0 00-.586.539 1.384 1.384 0 00-.031.743l.416 2.9-.072-.031.1 1.429a1.928 1.928 0 00.274 1.034 2.693 2.693 0 01.3.377c.164.332-.031.719-.176 1.059s-.2.823.123 1.006a2.594 2.594 0 00.533.285 11.149 11.149 0 00.332 4.974q.416 1.876.834 3.748a9.1 9.1 0 01.184 1.61v.234a9.015 9.015 0 00.391 2.193c.434 1.462.018 3.217.154 4.809a14.257 14.257 0 00.457 2.265 69.778 69.778 0 012.111 11.264 2.83 2.83 0 001.352.944c-.039.473.014 1.014 0 1.29a2.225 2.225 0 01-.106.672 1.615 1.615 0 01-1.022.87 4.359 4.359 0 01-.416.117l.156-.133a3.49 3.49 0 00-2.6.457 1.03 1.03 0 00-.514.606.977.977 0 00.18.7 3.2 3.2 0 001.807 1.284 9.492 9.492 0 002.228.311l1.38.08a.379.379 0 00.09.491.965.965 0 00.506.184 6.447 6.447 0 001.7.025.667.667 0 00.391-.141.252.252 0 000-.373.412.412 0 00.375-.274 1.114 1.114 0 00.051-.494 5.3 5.3 0 00-.428-2.15.545.545 0 00-.6-.266 23.455 23.455 0 01-.391-3.467 8.486 8.486 0 001-.453 7.76 7.76 0 01-.684-5.319 16.055 16.055 0 00.256-1.722 5.709 5.709 0 00-.749-3.412 12.208 12.208 0 013.049 2.759c1.35 1.759 2.173 3.889 3.828 5.355q.326-.318.661-.633.524.887.991 1.812a6.882 6.882 0 01.575 1.429 6.606 6.606 0 01.053 2.3q-.068.61-.166 1.214a3.312 3.312 0 01-.119.508.353.353 0 00-.037-.152c-.1-.182-.391-.1-.547.025a2.415 2.415 0 00-.674.782.84.84 0 00-.121.5.737.737 0 00.391.489 4.076 4.076 0 003.023-.5c.391-.281.6-.745.993-1.018a5.749 5.749 0 00.6-.379c.361-.33.391-.887.655-1.305.438-.721 1.417-.907 1.8-1.671a2.131 2.131 0 00-.752-2.453z" transform="translate(-637.28 -364.804)" fill="url(#a)"/><path data-name="Path 170" d="M163.307 115.334a2.179 2.179 0 01-.108.664 1.607 1.607 0 01-1.02.858c-.434.151-.9.2-1.337.326a1.172 1.172 0 00-.522.27.947.947 0 00.3 1.385 2.6 2.6 0 001.583.244 20.846 20.846 0 003.424-.487c.406-.1.881-.283.946-.7a1.135 1.135 0 00-.031-.391 23.111 23.111 0 01-.44-4.247 8.838 8.838 0 00-2.478-.018c-.472.317-.289 1.615-.317 2.096z" fill="#a1616a"/><path data-name="Path 171" d="M173.356 110.355q.563.932 1.057 1.9a6.714 6.714 0 01.574 1.409 6.47 6.47 0 01.053 2.273q-.068.6-.168 1.2a1.514 1.514 0 01-.5 1.059 1.157 1.157 0 001 .088 2.877 2.877 0 00.877-.537 7.746 7.746 0 002.994-5.56.88.88 0 00-.092-.492.973.973 0 00-.293-.262 22.536 22.536 0 01-3.465-2.91.424.424 0 00-.254-.162.438.438 0 00-.227.065c-.643.322-1.718.782-1.986 1.515a1.022 1.022 0 01.43.414z" fill="#a1616a"/><path data-name="Path 172" d="M165.596 117.602a17.407 17.407 0 01-4.454 1 .609.609 0 01-.534-.1.407.407 0 01-.035-.457 1.2 1.2 0 01.326-.36l1.01-.846a3.518 3.518 0 00-2.568.442 1.022 1.022 0 00-.512.586.953.953 0 00.18.694 3.193 3.193 0 001.806 1.266 9.656 9.656 0 002.226.307l1.368.078a.369.369 0 00.092.485.977.977 0 00.508.186 6.514 6.514 0 001.7.023.65.65 0 00.391-.139.246.246 0 000-.367.412.412 0 00.375-.272 1.129 1.129 0 00.051-.487 5.116 5.116 0 00-.428-2.116c-.334-.553-1.029-.119-1.502.077z" fill="#3f3d56"/><path data-name="Path 173" d="M179.888 112.015a6.294 6.294 0 00-1.45-.8.172.172 0 00-.262.066 14.887 14.887 0 00-2.136 4.118 7.153 7.153 0 01-1.067 2.415c-.074.09-.2.182-.3.129-.147-.074-.057-.311-.139-.453-.1-.18-.379-.1-.545.025a2.347 2.347 0 00-.672.782.784.784 0 00-.121.491.724.724 0 00.381.481 2.82 2.82 0 002.411-.2 2.758 2.758 0 00.608-.3c.391-.276.6-.735.993-1a5.656 5.656 0 00.6-.375c.36-.326.391-.875.653-1.29.438-.709 1.417-.893 1.8-1.647a2.124 2.124 0 00-.754-2.442z" fill="#3f3d56"/><path data-name="Path 174" d="M169.182 72.978a6.1 6.1 0 012.112 5.122 18.069 18.069 0 01-1.411 5.56l-2.869 7.725a3.18 3.18 0 01.2.88 1.082 1.082 0 01-.2.864c-.09.1-.2.184-.293.285a1.53 1.53 0 00-.254 1.2 3.469 3.469 0 01.033 1.253c-.045.174-.127.338-.158.514a.51.51 0 00.143.492c.2.156.586.105.643.352a29.206 29.206 0 016.508 8.012c.633 1.139 1.272 2.4 2.454 2.953a42.86 42.86 0 00-3.308 2.91c-1.651-1.446-2.474-3.551-3.823-5.276a12.117 12.117 0 00-3.045-2.722 5.568 5.568 0 01.748 3.365 15.614 15.614 0 01-.256 1.7 7.519 7.519 0 00.684 5.249 5.744 5.744 0 01-3.344.768 2.846 2.846 0 01-1.821-1.04 68.73 68.73 0 00-2.109-11.114 13.646 13.646 0 01-.456-2.249c-.137-1.563.279-3.3-.156-4.745a8.841 8.841 0 01-.391-2.161v-.233a8.858 8.858 0 00-.184-1.587l-.833-3.7a10.845 10.845 0 01-.334-4.909 2.6 2.6 0 01-.531-.279c-.319-.182-.268-.657-.123-.993s.338-.717.176-1.046a2.539 2.539 0 00-.3-.373 1.88 1.88 0 01-.274-1.018l-.1-1.411a2.761 2.761 0 011.391 1.218c-.77-1.192-.391-2.892.178-4.194a1.911 1.911 0 011.794-1.421c3.138-.537 6.964-1.864 9.509.049z" fill="#3f3d56"/><path data-name="Path 175" d="M167.773 81.003s-1.54 1.028-1.54 1.8-.391 7.7-.391 7.7v4.886a13.158 13.158 0 010 3.209 20.614 20.614 0 000 3.979c0 .385.391-3.979.391-3.979V93.97l.391-10.526z" opacity=".1"/><path data-name="Path 176" d="M159.239 45.409l-.9-.35c-1.833-.735-3.668-1.472-5.442-2.333a8.318 8.318 0 01-3.4-2.55c-.258-.391-.457-.8-.713-1.186a9.466 9.466 0 00-.977-1.159l-2.4-2.56c-.184.342.051.745.238 1.083a4.683 4.683 0 01.444 1.132.524.524 0 01-.014.391.761.761 0 01-.326.231 1.147 1.147 0 00-.494 1.323 1.475 1.475 0 001.106.954 2.107 2.107 0 01.495.119c.289.143.426.469.633.713a2.844 2.844 0 001.548.762c.887 1.01 1.808 1.978 2.695 2.988a19.327 19.327 0 004.464 4.119 6.536 6.536 0 002.015.809 32.655 32.655 0 011.028-4.486z" fill="#a1616a"/><path data-name="Path 177" d="M159.239 45.409l-.9-.35c-1.833-.735-3.668-1.472-5.442-2.333a8.318 8.318 0 01-3.4-2.55c-.258-.391-.457-.8-.713-1.186a9.466 9.466 0 00-.977-1.159l-2.4-2.56c-.184.342.051.745.238 1.083a4.683 4.683 0 01.444 1.132.524.524 0 01-.014.391.761.761 0 01-.326.231 1.147 1.147 0 00-.494 1.323 1.475 1.475 0 001.106.954 2.107 2.107 0 01.495.119c.289.143.426.469.633.713a2.844 2.844 0 001.548.762c.887 1.01 1.808 1.978 2.695 2.988a19.327 19.327 0 004.464 4.119 6.536 6.536 0 002.015.809 32.655 32.655 0 011.028-4.486z" opacity=".15"/><path data-name="Path 178" d="M157.573 50.511a1.077 1.077 0 01-.766-.367 1.031 1.031 0 01-.084-.674 18.9 18.9 0 01.977-4.319 4.671 4.671 0 002.107 1.7 15.641 15.641 0 002.263 1.032c-.2-.062-.674 2.943-.944 3.127-.34.238-1.161-.084-1.538-.149z" fill="#377da6"/><circle data-name="Ellipse 92" cx="4.108" cy="4.108" r="4.108" transform="translate(155.542 41.408)" fill="#a1616a"/><path data-name="Path 179" d="M158.801 48.917s2.695 2.31 1.54 3.85-1.8 2.568-.258 2.7 6.674-2.568 6.674-2.568-4.749-3.85-3.979-6.16-3.977 2.178-3.977 2.178z" fill="#fbbebe"/><path data-name="Path 180" d="M161.375 52.532a3.187 3.187 0 00-2.359 2.372c-.3 1.384.34 2.931-.266 4.205a16.694 16.694 0 01-1.173 1.628 3.322 3.322 0 00.309 3.832c.268.3.612.6.643 1a3.706 3.706 0 01-.055.547 4.062 4.062 0 00.281 1.272 1.3 1.3 0 01-.107 1.051 1.522 1.522 0 00-.266 1.01 6.768 6.768 0 01-.17 1.645c-.018.238 0 .477-.022.715a4.171 4.171 0 01-.141.67l-.344 1.268a14.1 14.1 0 005.862 1.048 28.753 28.753 0 005.353-.782 25.814 25.814 0 001.6-.373c-1.118-1.462-1.237-3.4-1.268-5.237a78.19 78.19 0 00-.686-9.165 11.789 11.789 0 001-3.3 5.587 5.587 0 00.125-1.393 7.417 7.417 0 00-.944-2.791 3.613 3.613 0 00-1.735-2.011 1.38 1.38 0 00-1.335.146c-.678.512-.477 1.4-.651 2.15a2.885 2.885 0 01-2.089 1.954 6.788 6.788 0 01-2.2.205.391.391 0 01-.278-.641c.33-.339.647-.693.916-1.025z" fill="#377da6"/><path data-name="Path 181" d="M164.567 68.41a26.733 26.733 0 01-4.813 3.377c-1.03.516-2.124.9-3.127 1.452a1.248 1.248 0 00-.586.532 1.315 1.315 0 00-.031.733l.446 3.072c.123.832.922 1.368 1.563 1.9a1.126 1.126 0 01.041-.745 2.494 2.494 0 01.151-.225 2.109 2.109 0 00.217-1.444 8.014 8.014 0 01-.17-1.481.485.485 0 01.207-.43c2.183-1.05 4.534-1.855 6.74-2.851a7.138 7.138 0 001.636-.928 2.516 2.516 0 00.95-1.577.309.309 0 00-.039-.24.326.326 0 00-.166-.1c-.99-.359-2.034-.689-3.019-1.045z" fill="#a1616a"/><path data-name="Path 182" d="M160.337 55.52a2.21 2.21 0 00-1.8 1.241 2.759 2.759 0 00-.1.977 3.178 3.178 0 00.229 1.354 3.845 3.845 0 00.457.665c1.806 2.314 2.713 5.22 4.471 7.571.156.207.442.477.354.721a1.739 1.739 0 00-.084.2.391.391 0 00.129.342.835.835 0 01.213.311c.033.123-.049.283-.176.273a2.614 2.614 0 001.471 1.343 6.128 6.128 0 003.285.807 7.5 7.5 0 00.391-2.689 6.982 6.982 0 00-.655-1.907l-.764-1.669a24.87 24.87 0 00-2.214-4.135 6.264 6.264 0 01-.819-1.319c-.232-.6-.872-1.028-1.258-1.546a9.585 9.585 0 00-1.942-2.128 1.756 1.756 0 00-1.188-.412z" opacity=".1"/><path data-name="Path 183" d="M160.337 55.135a2.212 2.212 0 00-1.8 1.239 2.771 2.771 0 00-.1.977 3.177 3.177 0 00.229 1.354 3.812 3.812 0 00.457.664c1.806 2.314 2.712 5.22 4.471 7.571.156.207.442.477.354.721a1.782 1.782 0 00-.084.2.392.392 0 00.129.342.836.836 0 01.213.311c.033.123-.049.283-.176.273a2.613 2.613 0 001.472 1.343 6.126 6.126 0 003.285.807 7.5 7.5 0 00.391-2.689 6.982 6.982 0 00-.655-1.907l-.764-1.669a24.857 24.857 0 00-2.214-4.135 6.23 6.23 0 01-.819-1.321c-.232-.6-.872-1.026-1.258-1.544a9.582 9.582 0 00-1.942-2.128 1.764 1.764 0 00-1.189-.409z" fill="#377da6"/><path data-name="Path 184" d="M158.605 38.768a4.525 4.525 0 00-1.6.336 1.538 1.538 0 00-.928 1.255 7.477 7.477 0 01.076.95c-.068.524-.555.877-.805 1.341a2.4 2.4 0 00.469 2.54c.567.711 1.335 1.259 1.917 1.966a5.081 5.081 0 011.059 4.088 3.245 3.245 0 00-.1.854 2.455 2.455 0 00.735 1.327 61.3 61.3 0 014.635 6.168 16.674 16.674 0 011.141 1.954 11.85 11.85 0 001.047 2.066 5.454 5.454 0 001.538 1.319 10.862 10.862 0 004.925 1.589l-1.006-2.5a2.864 2.864 0 01-.3-1.386c.111-.9 1.018-1.489 1.313-2.345a2.845 2.845 0 00-.053-1.72c-.356-1.264-1.067-2.4-1.45-3.658a7.426 7.426 0 01-.219-3.4 5.256 5.256 0 00.158-1.5c-.186-1.528-1.978-2.259-2.806-3.555a7.672 7.672 0 01-.819-2.832 8.937 8.937 0 00-1.618-3.973 4.664 4.664 0 00-3.713-1.894 7.5 7.5 0 00-2.232.559l-1.884.686" fill="#3f3d56"/><g data-name="Group 594" opacity=".1"><path data-name="Path 185" d="M167.014 41.96a9.047 9.047 0 00.674 2.582c-.057-.3-.1-.612-.16-.913a11.374 11.374 0 00-.629-2.24c.05.19.082.38.115.571z"/><path data-name="Path 186" d="M170.481 49.85a7.461 7.461 0 00.219 3.4 8.8 8.8 0 00.32.879 7.434 7.434 0 01-.025-2.615 5.255 5.255 0 00.158-1.5 2.345 2.345 0 00-.508-1.173c-.029.341-.108.675-.164 1.009z"/><path data-name="Path 187" d="M172.663 58.581a9.43 9.43 0 00-.391-1.079 2.4 2.4 0 01-.074 1.13c-.3.854-1.2 1.446-1.313 2.345a2.845 2.845 0 00.3 1.386l.2.5a1.65 1.65 0 010-.217c.111-.9 1.018-1.489 1.313-2.345a2.73 2.73 0 00-.035-1.72z"/><path data-name="Path 188" d="M167.276 63.269a5.472 5.472 0 01-1.538-1.321 11.784 11.784 0 01-1.049-2.066 16.491 16.491 0 00-1.141-1.954 61.386 61.386 0 00-4.634-6.17c-.061-.068-.119-.139-.178-.209a2.006 2.006 0 00-.045.551 2.454 2.454 0 00.735 1.327 61.317 61.317 0 014.635 6.168 16.675 16.675 0 011.141 1.954 11.855 11.855 0 001.047 2.066 5.458 5.458 0 001.538 1.319 10.862 10.862 0 004.925 1.589l-.684-1.681a10.875 10.875 0 01-4.752-1.573z"/><path data-name="Path 189" d="M157.221 45.495c-.586-.708-1.35-1.245-1.917-1.964a4.036 4.036 0 01-.148-.207 2.846 2.846 0 00.662 1.874c.567.721 1.335 1.259 1.917 1.966a4.886 4.886 0 01.586.891 5.079 5.079 0 00-1.1-2.56z"/></g><path data-name="Path 190" d="M75.367 32.725l-.72-.724a.382.382 0 00-.543 0l-4.524 4.482-1.914-1.928a.382.382 0 00-.54 0l-.728.72a.386.386 0 000 .543l2.906 2.928a.386.386 0 00.543 0l5.52-5.479a.382.382 0 000-.543z" fill="#fff"/><path data-name="Path 257" d="M114.213 32.725l-.72-.724a.382.382 0 00-.543 0l-4.524 4.482-1.914-1.928a.382.382 0 00-.54 0l-.728.72a.386.386 0 000 .543l2.906 2.928a.386.386 0 00.543 0l5.52-5.479a.382.382 0 000-.543z" fill="#fff"/></g></svg>