<svg xmlns="http://www.w3.org/2000/svg" width="74.017" height="74.016" viewBox="0 0 74.017 74.016"><path d="M72.292 33.066a2.313 2.313 0 00-2.283-1.749 7.84 7.84 0 01-5.367-13.645 1.973 1.973 0 00.217-2.678 35.152 35.152 0 00-5.625-5.681 1.978 1.978 0 00-2.7.218 8.184 8.184 0 01-8.856 1.989 7.887 7.887 0 01-4.8-7.709 1.97 1.97 0 00-1.738-2.074 35.435 35.435 0 00-7.988-.021 1.977 1.977 0 00-1.753 2.032 7.9 7.9 0 01-4.862 7.576 8.206 8.206 0 01-8.79-2 1.979 1.979 0 00-2.68-.225 35.3 35.3 0 00-5.744 5.679 1.975 1.975 0 00.212 2.7 7.869 7.869 0 011.986 8.86 8.208 8.208 0 01-7.726 4.8 1.932 1.932 0 00-2.057 1.74 35.594 35.594 0 00-.015 8.074 2.35 2.35 0 002.328 1.749 7.789 7.789 0 017.307 4.865 7.9 7.9 0 01-1.986 8.781 1.971 1.971 0 00-.215 2.675 35.277 35.277 0 005.616 5.679 1.975 1.975 0 002.7-.214 8.172 8.172 0 018.855-1.986 7.876 7.876 0 014.8 7.706 1.971 1.971 0 001.742 2.075 35.354 35.354 0 007.989.022 1.976 1.976 0 001.757-2.033 7.893 7.893 0 014.859-7.572 8.2 8.2 0 018.794 2 1.983 1.983 0 002.68.224 35.345 35.345 0 005.744-5.68 1.972 1.972 0 00-.212-2.7 7.867 7.867 0 01-1.982-8.859 7.948 7.948 0 017.263-4.813l.439.012a1.977 1.977 0 002.079-1.742 35.438 35.438 0 00.012-8.075zM37.008 57.479a20.47 20.47 0 1117.575-9.978l-8.964-8.96a12.557 12.557 0 00-14.866-17.008 1.421 1.421 0 00-.983.99 1.387 1.387 0 00.394 1.357s4.425 4.459 5.906 5.94a.918.918 0 01.133.658l-.014.1a28.3 28.3 0 01-.674 4.333c-.032.032-.062.058-.095.091l-.1.1a27.9 27.9 0 01-4.4.683v-.009l-.074.019a.645.645 0 01-.07 0 .946.946 0 01-.681-.289c-1.541-1.541-5.793-5.762-5.793-5.762a1.445 1.445 0 00-1.033-.46 1.405 1.405 0 00-1.323 1.069 12.558 12.558 0 0017.016 14.848l9.061 9.061a20.367 20.367 0 01-11.015 3.217z" fill="#0c7eb0" stroke="#f07320" stroke-width="3"/></svg>