<svg xmlns="http://www.w3.org/2000/svg" width="96.064" height="75.496" viewBox="0 0 96.064 75.496"><g data-name="Group 789"><g data-name="Group 790" fill="#0c7eb0" stroke="#f07320" stroke-width="3"><path data-name="Path 396" d="M37.529 16.312h21.026a3.832 3.832 0 003.832-3.832V9.888a3.832 3.832 0 00-3.832-3.832h-1.182v-1.62A2.937 2.937 0 0054.437 1.5H41.646a2.937 2.937 0 00-2.936 2.936v1.62h-1.182a3.832 3.832 0 00-3.832 3.832v2.592a3.82 3.82 0 003.833 3.832z"/><path data-name="Path 397" d="M83.87 11.527H65.913v.953a7.4 7.4 0 01-7.377 7.377H37.529a7.4 7.4 0 01-7.377-7.377v-.953H12.194A10.69 10.69 0 001.5 22.221v41.08a10.69 10.69 0 0010.694 10.694H83.87a10.69 10.69 0 0010.694-10.694v-41.08A10.7 10.7 0 0083.87 11.527zm-55.587 49.75a18.51 18.51 0 1118.51-18.51 18.517 18.517 0 01-18.51 18.51zm55.835-8.121H52.874v-3.979H84.1v3.984zm0-8.407H52.874v-3.984H84.1v3.984zm0-8.407H52.874v-3.984H84.1v3.984z"/><path data-name="Path 398" d="M28.34 27.826a14.942 14.942 0 00-11.645 24.305 3.09 3.09 0 012.173-2.955 18.145 18.145 0 005.319-2.421l2.211 6.977.305.953.991-2.8c-2.478-3.45.648-3.317.648-3.317s3.126-.133.648 3.317l.972 2.783.305-.934v.019l.343-1.106 1.848-5.871a18.145 18.145 0 005.319 2.421 3.09 3.09 0 012.173 2.955 14.956 14.956 0 00-11.61-24.326zm5.909 13.191c-.381 1.373-.763 1.773-1.029 1.792a5.952 5.952 0 01-3.6 4.461 3.951 3.951 0 01-2.65 0 5.872 5.872 0 01-3.6-4.461c-.267-.019-.648-.4-1.029-1.792-.534-1.887.038-2.173.515-2.116a5.935 5.935 0 01-.21-.782h0a5.814 5.814 0 01-.019-2.5 5.621 5.621 0 011.449-2.554 7.346 7.346 0 011.334-1.106 5.565 5.565 0 011.3-.667h0a4.063 4.063 0 011.182-.229 4.839 4.839 0 012.974.629 3.639 3.639 0 011.449 1.353s2.4.172 1.6 5.071a4.347 4.347 0 01-.21.782c.507-.035 1.078.232.545 2.119z"/></g></g></svg>