<svg xmlns="http://www.w3.org/2000/svg" width="98.664" height="76.489" viewBox="0 0 98.664 76.489"><g data-name="Group 787"><g data-name="Group 788" fill="#0c7eb0" stroke="#f07320" stroke-width="3"><path data-name="Path 394" d="M10.746 33.427h68.3V38.4a15.745 15.745 0 014.31-.78c.2 0 .39-.019.6-.019h0a16.052 16.052 0 014.349.624V8.775A7.275 7.275 0 0081.03 1.5H8.776a7.275 7.275 0 00-7.275 7.275v51.021a7.275 7.275 0 007.275 7.275h56.618v-7.548a8.417 8.417 0 01.2-1.716H10.746zm0-22.682h68.3v7.645h-68.3z"/><path data-name="Path 395" d="M94.415 56.792h-.078v-3.608a10.384 10.384 0 00-10.376-10.376h-.41a10.559 10.559 0 00-9.986 10.629v3.355h-.234a2.747 2.747 0 00-2.75 2.75v12.7a2.747 2.747 0 002.75 2.75h21.083a2.747 2.747 0 002.75-2.75v-12.7a2.772 2.772 0 00-2.749-2.75zm-8.523 12.266a.517.517 0 01-.507.624h-3.082a.508.508 0 01-.507-.624l.586-2.9a2.275 2.275 0 011.19-4 1.288 1.288 0 01.273-.02 2.274 2.274 0 011.443 4.037zm3.9-12.268H78.11v-3.432a5.954 5.954 0 015.285-5.988 5.49 5.49 0 01.566-.019 5.851 5.851 0 015.851 5.831v3.608h-.019z"/></g></g></svg>