<svg xmlns="http://www.w3.org/2000/svg" width="107.297" height="107.297" viewBox="0 0 107.297 107.297"><path data-name="Path 421" d="M75.653 107.3h18.861V37.931h12.783L85.169 0l-22.09 37.931h12.574z" fill="#0c7eb0"/><path data-name="Path 422" d="M25.357 50.715V40.5a9.415 9.415 0 01-6.287-8.851h6.287A3.143 3.143 0 1028.5 28.5a9.441 9.441 0 01-9.43-9.43 9.691 9.691 0 016.287-9.061V0A25.778 25.778 0 003.143 25.357a25.778 25.778 0 0022.214 25.358z" fill="#0c7eb0"/><path data-name="Path 423" d="M28.5 22.214A9.407 9.407 0 0131.644 40.5v10.215a25.613 25.613 0 000-50.715v10.009a9.691 9.691 0 016.287 9.061h-6.287a3.143 3.143 0 10-3.143 3.143z" fill="#0c7eb0"/><path data-name="Path 424" d="M0 99.543h56.792v7.754H0z" fill="#0c7eb0"/><path data-name="Path 425" d="M0 85.293h56.792v7.963H0z" fill="#0c7eb0"/><path data-name="Path 426" d="M0 71.252h56.792v7.754H0z" fill="#0c7eb0"/><path data-name="Path 427" d="M0 57.001h56.792v7.963H0z" fill="#0c7eb0"/></svg>