<svg xmlns="http://www.w3.org/2000/svg" width="170.302" height="140.99" viewBox="0 0 170.302 140.99"><g><ellipse data-name="Ellipse 56" cx="3.684" cy="8.944" rx="3.684" ry="8.944" transform="rotate(-45 230.574 -118.47)" fill="#ec5c2a" opacity=".1"/><ellipse data-name="Ellipse 57" cx="1.977" cy="2.589" rx="1.977" ry="2.589" transform="translate(158.888 127.466)" fill="#3f3d56"/><ellipse data-name="Ellipse 58" cx="1.977" cy="2.589" rx="1.977" ry="2.589" transform="translate(158.888 124.302)" fill="#3f3d56"/><ellipse data-name="Ellipse 59" cx="1.977" cy="2.589" rx="1.977" ry="2.589" transform="translate(158.888 121.137)" fill="#3f3d56"/><ellipse data-name="Ellipse 60" cx="1.977" cy="2.589" rx="1.977" ry="2.589" transform="translate(158.888 117.973)" fill="#3f3d56"/><ellipse data-name="Ellipse 61" cx="1.977" cy="2.589" rx="1.977" ry="2.589" transform="translate(158.888 114.809)" fill="#3f3d56"/><ellipse data-name="Ellipse 62" cx="1.977" cy="2.589" rx="1.977" ry="2.589" transform="translate(158.888 111.644)" fill="#3f3d56"/><ellipse data-name="Ellipse 63" cx="1.977" cy="2.589" rx="1.977" ry="2.589" transform="translate(158.888 108.48)" fill="#3f3d56"/><path data-name="Path 110" d="M168.272 89.415a9.444 9.444 0 00.737-1.084l-5.2-.853 5.621.041a9.5 9.5 0 00.184-7.506l-7.54 3.913 6.95-5.112a9.474 9.474 0 10-15.646 10.6 9.429 9.429 0 00-1.08 1.727l6.745 3.5-7.187-2.414a9.482 9.482 0 001.528 8.9 9.473 9.473 0 1014.891 0 9.475 9.475 0 000-11.714z" fill="#377da6"/><path data-name="Path 111" d="M151.352 94.272a9.428 9.428 0 002.027 5.857 9.473 9.473 0 1014.891 0c1.269-1.611-16.918-6.92-16.918-5.857z" fill="#377da6" opacity=".1"/><path data-name="Path 112" d="M156.137 0v132.691l-44.967-6.266-54.667 11.151-.44.09-43.49-11.979V10.32L57.725 0l49.39 10.32 1.878-.4z" fill="#444053"/><path data-name="Path 113" d="M148.581 7.246v118.723l-40.233-5.606-48.909 9.978-.394.079-38.916-10.717V16.479l40.4-9.233 44.19 9.233 1.681-.354z" fill="#fff"/><path data-name="Path 114" d="M111.17 126.425l-54.663 11.151L57.725 0l49.39 10.32 1.878-.4z" opacity=".1"/><g data-name="Group 593" opacity=".3" fill="none" stroke="#444053" stroke-miterlimit="10" stroke-width="3"><path data-name="Path 115" d="M105.711 25.432l.022 38.609h16.033V48.192h27.46l3.225-4.136"/><path data-name="Path 116" d="M16.443 37.688h59.619l3.686-1.659h1.474v37.227h25.8l1.106 3.317v16.771h19.9v20.733"/><path data-name="Line 56" d="M89.097 114.077V73.256"/><path data-name="Line 57" d="M152.451 103.141H89.097"/><path data-name="Line 58" d="M136.584 25.432v88.645"/><path data-name="Line 59" d="M16.259 95.305h136.192"/><path data-name="Line 60" d="M32.834 114.077V25.432"/><path data-name="Line 61" d="M64.492 25.432v88.645"/><path data-name="Line 62" d="M16.443 47.824l105.323.369"/><path data-name="Line 63" d="M47.097 25.592v88.484"/><path data-name="Path 117" d="M16.259 68.339h48.23l24.6 26.966"/><path data-name="Line 64" d="M94.427 25.432v47.824"/><path data-name="Line 65" d="M89.097 81.822h63.354"/></g><path data-name="Path 118" d="M108.037 81.456H89.423v-8.109l17.6-.092 1.106 3.133z" fill="#377da6"/><path data-name="Path 119" d="M98.822 39.439a10.188 10.188 0 00-10.188 10.188c0 5.627 10.188 23.906 10.188 23.906S109.01 55.26 109.01 49.627a10.188 10.188 0 00-10.188-10.188zm0 14.533a4.482 4.482 0 114.482-4.482 4.482 4.482 0 01-4.482 4.482z" fill="#377da6"/><path data-name="Path 121" d="M98.822 40.913a10.188 10.188 0 00-10.188 10.188c0 5.626 10.188 23.906 10.188 23.906s10.188-18.273 10.188-23.906a10.188 10.188 0 00-10.188-10.188zm0 14.533a4.482 4.482 0 114.482-4.482 4.482 4.482 0 01-4.482 4.482z" fill="#377da6"/><ellipse data-name="Ellipse 64" cx="6.165" cy="2.54" rx="6.165" ry="2.54" transform="rotate(-23.3 371.888 -145.04)" fill="#ec5c2a" opacity=".1"/><ellipse data-name="Ellipse 65" cx="1.364" cy="1.784" rx="1.364" ry="1.784" transform="translate(92.928 132.375)" fill="#3f3d56"/><ellipse data-name="Ellipse 66" cx="1.364" cy="1.784" rx="1.364" ry="1.784" transform="translate(92.928 130.193)" fill="#3f3d56"/><ellipse data-name="Ellipse 67" cx="1.364" cy="1.784" rx="1.364" ry="1.784" transform="translate(92.928 128.013)" fill="#3f3d56"/><ellipse data-name="Ellipse 68" cx="1.364" cy="1.784" rx="1.364" ry="1.784" transform="translate(92.928 125.833)" fill="#3f3d56"/><ellipse data-name="Ellipse 69" cx="1.364" cy="1.784" rx="1.364" ry="1.784" transform="translate(92.928 123.651)" fill="#3f3d56"/><ellipse data-name="Ellipse 70" cx="1.364" cy="1.784" rx="1.364" ry="1.784" transform="translate(92.928 121.471)" fill="#3f3d56"/><ellipse data-name="Ellipse 71" cx="1.364" cy="1.784" rx="1.364" ry="1.784" transform="translate(92.928 119.291)" fill="#3f3d56"/><path data-name="Path 122" d="M89.189 106.149a6.642 6.642 0 01-.509-.737l3.583-.59-3.87.029a6.549 6.549 0 01-.125-5.173l5.2 2.687-4.792-3.524a6.529 6.529 0 1110.783 7.307 6.553 6.553 0 01.737 1.191l-4.646 2.416 4.958-1.659a6.533 6.533 0 01-1.052 6.131 6.529 6.529 0 11-10.263 0 6.531 6.531 0 010-8.074z" fill="#377da6"/><path data-name="Path 123" d="M100.85 110.179a6.5 6.5 0 01-1.4 4.038 6.53 6.53 0 11-10.263 0c-.873-1.105 11.663-4.764 11.663-4.038z" fill="#377da6" opacity=".1"/><ellipse data-name="Ellipse 72" cx="3.684" cy="8.944" rx="3.684" ry="8.944" transform="rotate(-45 150.028 62.143)" fill="#ec5c2a" opacity=".1"/><ellipse data-name="Ellipse 73" cx="1.977" cy="2.589" rx="1.977" ry="2.589" transform="translate(7.584 123.411)" fill="#3f3d56"/><ellipse data-name="Ellipse 74" cx="1.977" cy="2.589" rx="1.977" ry="2.589" transform="translate(7.584 120.247)" fill="#3f3d56"/><ellipse data-name="Ellipse 75" cx="1.977" cy="2.589" rx="1.977" ry="2.589" transform="translate(7.584 117.083)" fill="#3f3d56"/><ellipse data-name="Ellipse 76" cx="1.977" cy="2.589" rx="1.977" ry="2.589" transform="translate(7.584 113.919)" fill="#3f3d56"/><ellipse data-name="Ellipse 77" cx="1.977" cy="2.589" rx="1.977" ry="2.589" transform="translate(7.584 110.754)" fill="#3f3d56"/><ellipse data-name="Ellipse 78" cx="1.977" cy="2.589" rx="1.977" ry="2.589" transform="translate(7.584 107.59)" fill="#3f3d56"/><ellipse data-name="Ellipse 79" cx="1.977" cy="2.589" rx="1.977" ry="2.589" transform="translate(7.584 104.426)" fill="#3f3d56"/><path data-name="Path 124" d="M16.968 85.361a9.422 9.422 0 00.737-1.084l-5.2-.853 5.621.041a9.5 9.5 0 00.184-7.506l-7.539 3.913 6.95-5.112a9.474 9.474 0 10-15.646 10.6 9.427 9.427 0 00-1.08 1.727l6.745 3.5-7.187-2.414a9.482 9.482 0 001.528 8.9 9.473 9.473 0 1014.891 0 9.474 9.474 0 000-11.714z" fill="#377da6"/><path data-name="Path 125" d="M.047 91.217a9.428 9.428 0 002.027 5.857 9.473 9.473 0 1014.891 0C18.234 95.463.047 90.154.047 91.217z" fill="#377da6" opacity=".1"/></g></svg>