<svg xmlns="http://www.w3.org/2000/svg" width="193.696" height="105.951" viewBox="0 0 193.696 105.951"><g data-name="Group 595"><path data-name="Path 192" d="M41.745 103.783l-.293-.1c3.27-22.612 11.486-43.146 23.136-57.819 17.906-22.517 42.011-29.089 63.774-17.388s38.111 40.023 43.251 74.931l-.293.1c-6.921-47.259-33.555-80.265-64.768-80.265-30.804.001-58.059 33.872-64.807 80.541z" fill="#3f3d56"/><circle data-name="Ellipse 94" cx="9.102" cy="9.102" transform="translate(151.978 22.775)" fill="#fff" opacity=".4" r="9.102"/><circle data-name="Ellipse 95" cx="4.637" cy="4.637" transform="translate(134.355 58.383)" fill="#fff" opacity=".4" r="4.637"/><circle data-name="Ellipse 96" cx="6.385" cy="6.385" transform="translate(54.255 43.819)" fill="#fff" opacity=".4" r="6.385"/><path data-name="Path 195" d="M16.495 102.81a5.862 5.862 0 002.183 2.953 5.047 5.047 0 00-1.787-6.6 5.862 5.862 0 00-.396 3.647z" fill="#3f3d56"/><path data-name="Path 196" d="M17.22 102.418a5.862 5.862 0 011.519 3.344 5.047 5.047 0 01-4.9-4.773 5.864 5.864 0 013.381 1.429z" fill="#377da6"/><path data-name="Path 199" d="M19.841 89.1l-1.2-2.009 11.247-9.641H58.81v2.812L48.366 91.51l-12.051 2.41z" fill="#3f3d56"/><path data-name="Path 200" d="M63.788 83.109v-6.285h-3.787v1.982l-1.192-1.354-9.641 9.64-1.607 1.607-2.008 8.034 3.615 8.837h18.477V87.494z" fill="#ccc"/><path data-name="Rectangle 190" fill="#f2f2f2" d="M18.641 87.092h30.528v18.478H18.641z"/><path data-name="Rectangle 191" fill="#3f3d56" d="M38.525 92.916h6.427v5.624h-6.427z"/><path data-name="Rectangle 192" fill="#ccc" d="M30.29 92.715h5.624v12.854H30.29z"/><path data-name="Path 201" d="M23.863 94.723v-2.008h-2.41v2.008h2.41z" fill="#3f3d56"/><path data-name="Path 202" d="M23.662 96.33h-2.209v2.009h2.41V96.33z" fill="#3f3d56"/><path data-name="Rectangle 193" fill="#3f3d56" d="M25.47 92.715h2.41v2.008h-2.41z"/><path data-name="Rectangle 194" fill="#3f3d56" d="M25.47 96.33h2.41v2.008h-2.41z"/><path data-name="Path 203" d="M57.811 94.925v-2.013h-2.41v2.009h2.41z" fill="#3f3d56"/><path data-name="Path 204" d="M57.605 96.531h-2.209v2.008h2.41v-2.008z" fill="#3f3d56"/><path data-name="Rectangle 195" fill="#3f3d56" d="M59.413 92.916h2.41v2.008h-2.41z"/><path data-name="Rectangle 196" fill="#3f3d56" d="M59.413 96.531h2.41v2.008h-2.41z"/><path data-name="Path 205" d="M136.064 89.1l-1.205-2.009 11.247-9.641h28.922v2.812l-10.444 11.247-12.051 2.41z" fill="#3f3d56"/><path data-name="Path 206" d="M180.006 83.109v-6.285h-3.787v1.982l-1.192-1.354-9.641 9.64-1.607 1.607-2.008 8.034 3.615 8.837h18.477V87.494z" fill="#ccc"/><path data-name="Rectangle 197" fill="#f2f2f2" d="M134.859 87.092h30.528v18.478h-30.528z"/><path data-name="Rectangle 198" fill="#3f3d56" d="M154.742 92.916h6.427v5.624h-6.427z"/><path data-name="Rectangle 199" fill="#ccc" d="M146.508 92.715h5.624v12.854h-5.624z"/><path data-name="Path 207" d="M140.081 94.723v-2.008h-2.41v2.008h2.41z" fill="#3f3d56"/><path data-name="Path 208" d="M139.88 96.33h-2.209v2.009h2.41V96.33z" fill="#3f3d56"/><path data-name="Rectangle 200" fill="#3f3d56" d="M141.688 92.715h2.41v2.008h-2.41z"/><path data-name="Rectangle 201" fill="#3f3d56" d="M141.688 96.33h2.41v2.008h-2.41z"/><path data-name="Path 209" d="M174.028 94.925v-2.013h-2.41v2.009h2.41z" fill="#3f3d56"/><path data-name="Path 210" d="M173.822 96.531h-2.209v2.008h2.41v-2.008z" fill="#3f3d56"/><path data-name="Rectangle 202" fill="#3f3d56" d="M175.63 92.916h2.41v2.008h-2.41z"/><path data-name="Rectangle 203" fill="#3f3d56" d="M175.63 96.531h2.41v2.008h-2.41z"/><path data-name="Path 211" d="M81.706 55.358l-2.008-1.607 11.247-10.042h28.52v8.833l-18.477 12.452z" fill="#3f3d56"/><path data-name="Path 212" d="M124.664 49.342v-5.433h-3.787v1.333l-1.413-1.531-9.239 10.042-3.615 2.41-5.606 40.954 8.454 8.454h19.646V54.153z" fill="#ccc"/><path data-name="Rectangle 204" fill="#f2f2f2" d="M79.698 53.751h30.528v51.818H79.698z"/><path data-name="Rectangle 205" fill="#ccc" d="M91.547 92.916h5.624v12.653h-5.624z"/><path data-name="Path 213" d="M85.522 96.531v-2.008h-2.41v2.008h2.41z" fill="#3f3d56"/><path data-name="Path 214" d="M85.321 98.138h-2.209v2.009h2.41v-2.009z" fill="#3f3d56"/><path data-name="Rectangle 206" fill="#3f3d56" d="M87.129 94.523h2.41v2.008h-2.41z"/><path data-name="Rectangle 207" fill="#3f3d56" d="M87.129 98.138h2.41v2.008h-2.41z"/><path data-name="Path 215" d="M101.991 96.531v-2.008h-2.41v2.008h2.41z" fill="#3f3d56"/><path data-name="Path 216" d="M101.79 98.138h-2.209v2.009h2.41v-2.009z" fill="#3f3d56"/><path data-name="Rectangle 208" fill="#3f3d56" d="M103.598 94.523h2.41v2.008h-2.41z"/><path data-name="Rectangle 209" fill="#3f3d56" d="M103.598 98.138h2.41v2.008h-2.41z"/><path data-name="Path 217" d="M118.862 56.362v-2.008h-2.415v2.008h2.41z" fill="#3f3d56"/><path data-name="Path 218" d="M118.661 57.969h-2.214v2.008h2.41v-2.008z" fill="#3f3d56"/><path data-name="Rectangle 210" fill="#3f3d56" d="M120.469 54.354h2.41v2.008h-2.41z"/><path data-name="Rectangle 211" fill="#3f3d56" d="M120.469 57.969h2.41v2.008h-2.41z"/><path data-name="Path 219" d="M118.862 67.61v-2.009h-2.415v2.009h2.41z" fill="#3f3d56"/><path data-name="Path 220" d="M118.661 69.216h-2.214v2.008h2.41v-2.008z" fill="#3f3d56"/><path data-name="Rectangle 212" fill="#3f3d56" d="M120.469 65.601h2.41v2.008h-2.41z"/><path data-name="Rectangle 213" fill="#3f3d56" d="M120.469 69.216h2.41v2.008h-2.41z"/><path data-name="Path 221" d="M118.862 78.857v-2.009h-2.415v2.009h2.41z" fill="#3f3d56"/><path data-name="Path 222" d="M118.661 80.464h-2.214v2.008h2.41v-2.008z" fill="#3f3d56"/><path data-name="Rectangle 214" fill="#3f3d56" d="M120.469 76.848h2.41v2.008h-2.41z"/><path data-name="Rectangle 215" fill="#3f3d56" d="M120.469 80.464h2.41v2.008h-2.41z"/><path data-name="Path 223" d="M118.862 90.104v-2.009h-2.415v2.009h2.41z" fill="#3f3d56"/><path data-name="Path 224" d="M118.661 91.711h-2.214v2.008h2.41v-2.008z" fill="#3f3d56"/><path data-name="Rectangle 216" fill="#3f3d56" d="M120.469 88.096h2.41v2.008h-2.41z"/><path data-name="Rectangle 217" fill="#3f3d56" d="M120.469 91.711h2.41v2.008h-2.41z"/><path data-name="Rectangle 218" fill="#3f3d56" d="M83.112 56.362h23.298v4.82H83.112z"/><path data-name="Rectangle 219" fill="#3f3d56" d="M83.112 66.003h23.298v4.82H83.112z"/><path data-name="Rectangle 220" fill="#3f3d56" d="M83.112 75.643h23.298v4.82H83.112z"/><path data-name="Rectangle 221" fill="#3f3d56" d="M83.112 85.284h23.298v4.82H83.112z"/><path data-name="Rectangle 258" fill="#3f3d56" d="M0 105.368h193.696v.583H0z"/><path data-name="Rectangle 259" fill="#3f3d56" d="M73.401 82.358h.583v23.011h-.583z"/><path data-name="Path 253" d="M79.36 85.291c.037 8.046-5.624 14.6-5.624 14.6s-5.721-6.5-5.758-14.543 5.624-14.6 5.624-14.6 5.72 6.496 5.758 14.543z" fill="#377da6"/><path data-name="Rectangle 260" fill="#3f3d56" d="M131.655 82.358h.583v23.011h-.583z"/><path data-name="Path 254" d="M137.614 85.291c.037 8.046-5.624 14.6-5.624 14.6s-5.721-6.5-5.758-14.543 5.624-14.6 5.624-14.6 5.721 6.496 5.758 14.543z" fill="#377da6"/><g data-name="Group 596" transform="translate(100.244)"><ellipse data-name="Ellipse 98" cx="5.368" cy="1.208" rx="5.368" ry="1.208" transform="translate(.989 21.889)" fill="#377da6"/><path data-name="Path 256" d="M12.431 6.216c0 3.433-6.216 13.137-6.216 13.137S0 9.648 0 6.216a6.216 6.216 0 0112.431 0z" fill="#377da6"/><circle data-name="Ellipse 99" cx="3.532" cy="3.532" transform="translate(2.684 2.684)" fill="#f2f2f2" r="3.532"/></g></g></svg>