<svg xmlns="http://www.w3.org/2000/svg" width="100.142" height="113.503" viewBox="0 0 100.142 113.503"><g data-name="Group 883"><g data-name="Group 882"><path data-name="Path 439" d="M96.863 47.126L52.595 2.851a6.654 6.654 0 10-9.411 9.408l44.275 44.272a6.65 6.65 0 009.4-9.4z" fill="#0c7eb0"/></g></g><g data-name="Group 885"><g data-name="Group 884"><path data-name="Path 440" d="M39.899 18.374l-.333 1.67A71.485 71.485 0 0123.8 51.977l24.086 24.086a71.247 71.247 0 0131.779-15.92l1.673-.333z" fill="#0c7eb0"/></g></g><g data-name="Group 887"><g data-name="Group 886"><path data-name="Path 441" d="M19.384 56.971L2.923 73.429a9.975 9.975 0 000 14.11l9.4 9.4a9.975 9.975 0 0014.11 0l16.464-16.457zm2.351 25.865a3.325 3.325 0 01-4.7-4.7l4.7-4.7a3.325 3.325 0 014.7 4.7z" fill="#0c7eb0"/></g></g><g data-name="Group 889"><g data-name="Group 888"><path data-name="Path 442" d="M56.781 98.712l4.524-4.524a9.967 9.967 0 000-14.106l-3.36-3.362a62.983 62.983 0 00-5.355 4.049l4.013 4.019a3.318 3.318 0 010 4.7l-4.6 4.6-6.757-6.547-9.4 9.4 15.087 14.62a6.651 6.651 0 009.4-9.411z" fill="#0c7eb0"/></g></g><g data-name="Group 891"><g data-name="Group 890"><path data-name="Path 443" d="M70.214 0a3.323 3.323 0 00-3.325 3.325v6.651a3.325 3.325 0 106.651 0V3.325A3.323 3.323 0 0070.214 0z" fill="#0c7eb0"/></g></g><g data-name="Group 893"><g data-name="Group 892"><path data-name="Path 444" d="M96.817 26.602h-6.651a3.325 3.325 0 000 6.651h6.651a3.325 3.325 0 100-6.651z" fill="#0c7eb0"/></g></g><g data-name="Group 895"><g data-name="Group 894"><path data-name="Path 445" d="M92.517 7.625a3.324 3.324 0 00-4.7 0l-6.651 6.651a3.325 3.325 0 104.7 4.7l6.651-6.651a3.324 3.324 0 000-4.7z" fill="#0c7eb0"/></g></g></svg>