<svg xmlns="http://www.w3.org/2000/svg" width="61.394" height="80.859" viewBox="0 0 61.394 80.859"><g data-name="Group 785"><g data-name="Group 786"><path data-name="Path 393" d="M58.272 30.7h-4.866v-6.491a22.709 22.709 0 00-45.417 0V30.7H3.122A1.621 1.621 0 001.5 32.319V72.87a6.5 6.5 0 006.488 6.488h45.418a6.5 6.5 0 006.488-6.488V32.319a1.621 1.621 0 00-1.622-1.619zM35.554 64.581a1.622 1.622 0 01-1.613 1.8h-6.488a1.622 1.622 0 01-1.613-1.8l1.023-9.2a6.417 6.417 0 01-2.655-5.218 6.489 6.489 0 1112.977 0 6.417 6.417 0 01-2.655 5.218zm8.12-33.884H17.721v-6.488a12.976 12.976 0 0125.953 0z" fill="#0c7eb0" stroke="#f07320" stroke-width="3"/></g></g></svg>