<svg xmlns="http://www.w3.org/2000/svg" width="130.203" height="112.217" viewBox="0 0 130.203 112.217"><path data-name="Path 430" d="M65.101 35.624a17.812 17.812 0 10-17.812-17.812 17.832 17.832 0 0017.812 17.812zm0 0" fill="#0c7eb0"/><path data-name="Path 431" d="M65.101 43.258a25.416 25.416 0 01-20.023-9.76 13.921 13.921 0 00-2.878 8.487v26.464H88V41.985a13.921 13.921 0 00-2.878-8.487 25.416 25.416 0 01-20.023 9.76zm0 0" fill="#0c7eb0"/><path data-name="Path 432" d="M52.848 112.217h24.506l4.755-36.133H48.092zm0 0" fill="#0c7eb0"/><path data-name="Path 433" d="M26.932 34.05L0 54.45l26.932 20.4v-8.953h7.634v-22.9h-7.634zm0 0" fill="#0c7eb0"/><path data-name="Path 434" d="M130.203 54.454l-26.932-20.4v8.952h-7.634v22.9h7.634v8.953zm0 0" fill="#0c7eb0"/></svg>