<svg xmlns="http://www.w3.org/2000/svg" width="53.982" height="78.418" viewBox="0 0 53.982 78.418"><path d="M51.276 19.919a23.054 23.054 0 00-1.194-2.96C45.347 5.578 35 1.5 26.645 1.5 15.461 1.5 3.144 9 1.499 24.457v3.158c0 .132.045 1.316.11 1.908.922 7.367 6.735 15.2 11.076 22.563 4.671 7.894 9.518 15.658 14.319 23.414 2.961-5.065 5.911-10.2 8.8-15.13.789-1.448 1.7-2.895 2.493-4.277.526-.92 1.531-1.84 1.991-2.7 4.671-8.551 12.188-17.168 12.188-25.655v-3.477a26.258 26.258 0 00-1.2-4.342zM26.85 35.773a9.048 9.048 0 01-8.662-6.184 8.578 8.578 0 01-.243-2.3v-2.042c0-5.787 4.914-8.419 9.189-8.419a9.316 9.316 0 019.333 9.474 9.556 9.556 0 01-9.617 9.471z" fill="#0c7eb0" stroke="#f07320" stroke-width="3" data-name="Group 784"/></svg>